<svg xmlns="http://www.w3.org/2000/svg" viewBox="0 0 64 64"><defs><style>.cls-1{fill:#212121;}</style></defs><title>date_filter_1</title><g id="Layer_2" data-name="Layer 2"><g id="Sidebar"><path class="cls-1" d="M57.88,7.65H52.21v.11H47.85C47.24,10.79,45,13,42.34,13s-4.9-2.25-5.51-5.28H34.3V7.65H28.61v.11H27.17c-.61,3-2.84,5.28-5.51,5.28s-4.9-2.25-5.51-5.28H10.7V7.65H6.12v.11H0V64H64V7.76H57.88ZM11.36,58.47H5.68V52.94h5.68Zm0-7.44H5.68V45.5h5.68Zm0-7.44H5.68V38.06h5.68Zm7.86,14.88H13.54V52.94h5.68Zm0-7.44H13.54V45.5h5.68Zm0-7.44H13.54V38.06h5.68Zm7.86,14.88H21.41V52.94h5.68Zm0-7.44H21.41V45.5h5.68Zm0-7.44H21.41V38.06h5.68Zm0-7.65H21.41V30.4h5.68Zm7.86,22.54H29.27V52.94h5.68Zm0-7.44H29.27V45.5h5.68Zm0-7.44H29.27V38.06h5.68Zm0-7.65H29.27V30.4h5.68Zm7.86,22.54H37.13V52.94h5.68Zm0-7.44H37.13V45.5h5.68Zm0-7.44H37.13V38.06h5.68Zm0-7.65H37.13V30.4h5.68ZM50.68,51H45V45.5h5.68Zm0-7.44H45V38.06h5.68Zm0-7.65H45V30.4h5.68ZM58.54,51H52.86V45.5h5.68Zm0-7.44H52.86V38.06h5.68Zm0-7.65H52.86V30.4h5.68ZM58.1,20.41v4.46H5.68V20.41Z"/><rect class="cls-1" x="18.59" width="5.82" height="10.21"/><rect class="cls-1" x="39.26" width="5.83" height="10.21"/></g></g></svg>