<svg xmlns="http://www.w3.org/2000/svg" xmlns:xlink="http://www.w3.org/1999/xlink" viewBox="0 0 64.26 63.99"><defs><style>.cls-1{fill:none;}.cls-2{clip-path:url(#clip-path);}.cls-3{fill:#00838f;}</style><clipPath id="clip-path"><rect class="cls-1" y="0.27" width="64" height="64"/></clipPath></defs><title>help_alt_1</title><g id="Layer_2" data-name="Layer 2"><g id="Sidebar"><g class="cls-2"><path class="cls-3" d="M32.13,0C14.38,0,0,12.51,0,27.94,0,38.5,6.73,47.68,16.66,52.44L16.28,64l15.16-8.13c.22,0,.45,0,.69,0,17.74,0,32.13-12.51,32.13-27.94S49.87,0,32.13,0Zm4.09,44.23H28V21.18h8.23ZM32.05,18.36c-2.61,0-4.34-1.61-4.28-3.59s1.67-3.62,4.33-3.62,4.34,1.55,4.39,3.62-1.74,3.59-4.44,3.59Zm0,0"/></g></g></g></svg>