<svg xmlns="http://www.w3.org/2000/svg" viewBox="0 0 267.67 74.04"><defs><style>.cls-1{fill:#fafafa;}</style></defs><title>athens_night_white</title><g id="Layer_2" data-name="Layer 2"><g id="Footer"><path class="cls-1" d="M39.15,44.9a6.7,6.7,0,0,1-1.69,1,8.36,8.36,0,0,1-3.52.61,4.36,4.36,0,0,1-2.5-.68q-1-.68-1-3.18-.14-2.7-.34-5.1t-.48-4.83q-1.76.07-3.85.07t-3.65.13a44.26,44.26,0,0,1-2,5.68,19.53,19.53,0,0,1-2.87,4.8,12.77,12.77,0,0,1-4.12,3.31,12.5,12.5,0,0,1-5.71,1.22,11.57,11.57,0,0,1-2.6-.3,7.35,7.35,0,0,1-2.4-1A5.49,5.49,0,0,1,.68,44.73,5.86,5.86,0,0,1,0,41.79a2.2,2.2,0,0,1,.54-1.45,1.7,1.7,0,0,1,1.35-.64,1.72,1.72,0,0,1,1.76.91q.41.91.78,2a5.56,5.56,0,0,0,1.22,2,4.11,4.11,0,0,0,3.08.91,5.85,5.85,0,0,0,3-.81,10.58,10.58,0,0,0,2.54-2.1,15,15,0,0,0,2-2.84,22.6,22.6,0,0,0,1.39-3q.61-1.76.81-2.43t.34-1-.2-.14q-1.76.2-3,.3t-2.33.1a13.79,13.79,0,0,1-2.37-.17,1.1,1.1,0,0,1-.95-1.25,1.12,1.12,0,0,1,.58-1,4.33,4.33,0,0,1,1.66-.54q1.08-.17,2.54-.27L18,30.16l1.28-.1q.54,0,.61-.24Q20.49,27.92,21,26L22.11,22q.88-3.45,1.55-7.54a49.16,49.16,0,0,0,.68-8q0-.68,0-1.12c0-.29,0-.51,0-.64a2.41,2.41,0,0,1,.88-.13,4.42,4.42,0,0,0,1.08-.14A11.12,11.12,0,0,0,27.55,4a4.88,4.88,0,0,1,1.79-.3,6.3,6.3,0,0,1,1.13.17,11.82,11.82,0,0,1,1.61.47A10,10,0,0,1,33.56,5q.65.37.65.78V16.56a95.21,95.21,0,0,0,.54,10.31q.54,5,1.28,8.86a47.79,47.79,0,0,0,1.59,6.36Q38.47,44.56,39.15,44.9ZM29.21,30q-.14-1.49-.37-3.52t-.57-4.12q-.34-2.09-.68-4.06T26.91,15q-.2.54-.57,1.83l-.85,2.91q-.47,1.62-.91,3.38t-.85,3.25q-.41,1.49-.64,2.47A9.8,9.8,0,0,0,22.85,30Z"/><path class="cls-1" d="M43.2,33.27q.07-3.45.2-7t.27-6.63q0-.54-1.08-.74t-2.43-.41a10.66,10.66,0,0,1-2.43-.64,1.51,1.51,0,0,1-1.08-1.45q0-.88,1.76-1t5.21-.14q.27,0,.37-.81t.14-2.06q0-1.25.07-2.67T44.29,7a14.07,14.07,0,0,1,.24-2.06q.17-.81.44-.81a9.66,9.66,0,0,1,1.22.14q.88.14,1.83.37a8.94,8.94,0,0,1,1.66.58q.71.34.71.74l-.74,8.79c0,.27.24.46.71.57a9.28,9.28,0,0,0,1.83.2q1.12,0,2.37,0a13.2,13.2,0,0,1,2.37.2,5.25,5.25,0,0,1,1.83.64,1.45,1.45,0,0,1,.71,1.32,1.28,1.28,0,0,1-.13.44c-.09.2-.2.3-.34.3a.68.68,0,0,1-.37-.2,2.32,2.32,0,0,0-1.25-.2l-1.49.07q-1.22.07-2.57.2t-2.47.3q-1.12.17-1.25.44a10,10,0,0,0-.17,1.59q-.1,1.45-.2,3.82T49,29.92Q49,33,49,36.38a22.49,22.49,0,0,0,.14,2.5,14.09,14.09,0,0,0,.41,2.2,4.92,4.92,0,0,0,.71,1.59,1.27,1.27,0,0,0,1,.61,2.26,2.26,0,0,0,1.62-.74,7.21,7.21,0,0,0,1.35-2,19.68,19.68,0,0,0,1.08-2.91q.47-1.62.81-3.31a4.72,4.72,0,0,1,.47-1.45.89.89,0,0,1,.81-.44,1.3,1.3,0,0,1,.85.3,1.82,1.82,0,0,1,.37,1.39,3.52,3.52,0,0,1-.07.88q-.2,1.22-.78,3.35a24.9,24.9,0,0,1-1.55,4.19,14.64,14.64,0,0,1-2.4,3.62,4.36,4.36,0,0,1-3.31,1.55,5,5,0,0,1-3.18-1,8.12,8.12,0,0,1-2.27-2.91,17.09,17.09,0,0,1-1.39-4.4,29.63,29.63,0,0,1-.47-5.44Z"/><path class="cls-1" d="M83.16,35.9a13.73,13.73,0,0,1-.57,2.67A14.9,14.9,0,0,1,81.1,42a11,11,0,0,1-2.5,2.91,5.62,5.62,0,0,1-3.68,1.25,4.59,4.59,0,0,1-3.35-1.22,7.63,7.63,0,0,1-1.89-3.35,22.14,22.14,0,0,1-.81-5.11q-.17-3-.17-6.49V28.43q0-.91.07-1.59a27,27,0,0,0-1.62,3.75q-.81,2.27-1.45,4.83t-1,5.24a41.5,41.5,0,0,0-.47,5q-.68.13-1.45.34a7.13,7.13,0,0,1-1.79.2,8,8,0,0,1-.95-.07,4.77,4.77,0,0,1-1.08-.27,2.52,2.52,0,0,1-.91-.57,1.32,1.32,0,0,1-.37-1,2,2,0,0,1,.24-.61,4.93,4.93,0,0,0,.24-1.89V3a2.43,2.43,0,0,0-.24-1.28,1.37,1.37,0,0,1-.24-.81q0-.27.47-.44A6.39,6.39,0,0,1,59.16.17,11.28,11.28,0,0,1,60.41,0l1,0A9.47,9.47,0,0,1,65,.74q-.34,1.83-.64,4.83t-.58,6.22Q63.56,15,63.42,18t-.14,4.56V23q0,.3,0,1.56t-.07,3.89q0,2.64-.1,7.44s.1-.47.3-1.28.46-1.83.78-3,.69-2.52,1.12-3.92.88-2.69,1.35-3.89a18.35,18.35,0,0,1,1.45-3q.74-1.18,1.42-1.18a9.81,9.81,0,0,1,2.06.3,2.22,2.22,0,0,1,1.66,1,3.35,3.35,0,0,0,.57,1.15,6,6,0,0,0,.54.54,3.49,3.49,0,0,1,.41.41.94.94,0,0,1,.17.61q-.07.2-.3,1.35t-.47,2.87q-.24,1.72-.44,3.79t-.2,4.09A20.08,20.08,0,0,0,74,40.43q.47,2,1.83,2A3.16,3.16,0,0,0,78,41.58a6.51,6.51,0,0,0,1.45-2,12.25,12.25,0,0,0,.88-2.6q.3-1.38.51-2.47.34-1.42,1-1.42a1.1,1.1,0,0,1,1,.54,2.89,2.89,0,0,1,.3,1.42Z"/><path class="cls-1" d="M100.07,35.09a13.72,13.72,0,0,1-.61,3.79,12.71,12.71,0,0,1-1.89,3.89,11.08,11.08,0,0,1-3.28,3A9,9,0,0,1,89.52,47,9.61,9.61,0,0,1,85.06,46a8.52,8.52,0,0,1-3-2.57,10.35,10.35,0,0,1-1.69-3.82A20.55,20.55,0,0,1,79.85,35a27.92,27.92,0,0,1,.54-5.21,22.41,22.41,0,0,1,1.69-5.31A13.29,13.29,0,0,1,85,20.39a6,6,0,0,1,4.26-1.66,5.35,5.35,0,0,1,2.3.51,6.65,6.65,0,0,1,1.89,1.32,6.13,6.13,0,0,1,1.28,1.89,6.5,6.5,0,0,1,.54,2.23l.07.95a13.21,13.21,0,0,1-.54,3.55,14.15,14.15,0,0,1-1.55,3.58,9.86,9.86,0,0,1-2.5,2.77,5.49,5.49,0,0,1-3.38,1.12,6.59,6.59,0,0,1-.85-.07,6.69,6.69,0,0,1-1-.2v2a4.51,4.51,0,0,0,.3,1.35,6.7,6.7,0,0,0,.91,1.72,5.92,5.92,0,0,0,1.59,1.49,4.28,4.28,0,0,0,2.4.64,6,6,0,0,0,3.21-.78,6.69,6.69,0,0,0,2.06-2A9.81,9.81,0,0,0,97.26,38q.44-1.52.71-2.94a4.74,4.74,0,0,1,.41-1.28.73.73,0,0,1,.68-.34q1,0,1,1.15Zm-8-10.48a2.58,2.58,0,0,0-.3-1.15,1.13,1.13,0,0,0-1.12-.61,2.52,2.52,0,0,0-2.1,1.28,12.33,12.33,0,0,0-1.45,2.94,20.8,20.8,0,0,0-.85,3.18,14.76,14.76,0,0,0-.27,2v.2a3.84,3.84,0,0,0,.1,1q.1.37.71.37h.34a3,3,0,0,0,2.3-1A7.85,7.85,0,0,0,91,30.36a14.83,14.83,0,0,0,.85-2.91A14.2,14.2,0,0,0,92.09,25Z"/><path class="cls-1" d="M108.79,30.76a13.46,13.46,0,0,0-1.66,3.14A34.7,34.7,0,0,0,106,37.49q-.47,1.86-.78,3.72t-.64,3.55q-.14.41-1,.54a10.11,10.11,0,0,1-1.32.14,12,12,0,0,1-2-.14,1.85,1.85,0,0,1-1.18-.64,3.6,3.6,0,0,1-.61-1.55,25.72,25.72,0,0,1-.34-2.81L99,20.22q0-.88.95-.88a6.18,6.18,0,0,1,.95.1,10.47,10.47,0,0,1,1.28.3,4.54,4.54,0,0,1,1.15.51.86.86,0,0,1,.47.71V34.69a1.9,1.9,0,0,0,.2-.54q.47-1.22,1.15-3a36.12,36.12,0,0,1,1.49-3.41,15.86,15.86,0,0,1,1.72-2.77,2.49,2.49,0,0,1,1.86-1.15,2.7,2.7,0,0,1,1.86.57,3.71,3.71,0,0,1,1,1.45,6.45,6.45,0,0,1,.41,1.89q.07,1,.07,2,0,.68-.13,2.23t-.14,4.67a13.7,13.7,0,0,0,.34,3.18q.34,1.42,1.35,1.42a1.79,1.79,0,0,0,1.35-.68,7.54,7.54,0,0,0,1.12-1.69,13.14,13.14,0,0,0,.85-2.16,10.09,10.09,0,0,0,.41-2.16q.07-1.28,1-1.28a.82.82,0,0,1,.81.41,2.09,2.09,0,0,1,.2.95v.14a15.31,15.31,0,0,1-.51,3,13.07,13.07,0,0,1-1.28,3.18,8.1,8.1,0,0,1-2.2,2.5,5.37,5.37,0,0,1-3.31,1q-3,0-3.89-2.2a19.14,19.14,0,0,1-.85-6.52Z"/><path class="cls-1" d="M135.16,41.31a3,3,0,0,1-1.08,2.5,7,7,0,0,1-2.47,1.28,13.34,13.34,0,0,1-2.77.51q-1.39.1-2,.1a16.54,16.54,0,0,1-2.33-.2,15.72,15.72,0,0,1-2.7-.64,6.31,6.31,0,0,1-2.23-1.25,2.6,2.6,0,0,1-.91-2,1.09,1.09,0,0,1,.57-1,2.21,2.21,0,0,1,2.57.24l1.49,1.15A14.05,14.05,0,0,0,125,43.07a4.27,4.27,0,0,0,2.16.54,4.13,4.13,0,0,0,1.45-.37,1.33,1.33,0,0,0,.91-1.32,2.74,2.74,0,0,0-.78-1.83,15.92,15.92,0,0,0-2-1.83q-1.18-.95-2.54-2a23.39,23.39,0,0,1-2.54-2.2,11.42,11.42,0,0,1-2-2.6A6.37,6.37,0,0,1,119,28.4a5.62,5.62,0,0,1,1.52-4,11.35,11.35,0,0,1,3.58-2.57,18.11,18.11,0,0,1,4.23-1.35,19.62,19.62,0,0,1,3.38-.41,6,6,0,0,1,2.3.47,1.79,1.79,0,0,1,1.15,1.83,6.1,6.1,0,0,1-.17,1.18,6.46,6.46,0,0,1-.54,1.52,4.66,4.66,0,0,1-1,1.32,2.17,2.17,0,0,1-1.56.58.82.82,0,0,1-.54-.24l-.61-.54a5.52,5.52,0,0,0-.71-.54,1.55,1.55,0,0,0-.85-.24,3.72,3.72,0,0,0-3.31,1.39,5.12,5.12,0,0,0-.95,2.94,4.1,4.1,0,0,0,1.59,2.84q1.59,1.49,3.52,3t3.52,2.94A4,4,0,0,1,135.16,41.31Z"/><path class="cls-1" d="M188.77,44.9a1.64,1.64,0,0,1-.3,1,2.26,2.26,0,0,1-.74.64,4.42,4.42,0,0,1-.95.37,3.4,3.4,0,0,1-.85.14,6,6,0,0,1-4.5-1.62,10.07,10.07,0,0,1-2.37-4,20.77,20.77,0,0,1-.95-5.17q-.17-2.77-.17-5.07,0-.67.07-2.4t.1-3.58q0-1.86.1-3.35t.07-1.76q0-.88-.34-.88a13.06,13.06,0,0,0-1,2.3q-.64,1.69-1.39,4T174,30.43q-.78,2.64-1.39,5.14t-1,4.6a20.3,20.3,0,0,0-.37,3.38,2.44,2.44,0,0,0,.3,1.22,2.23,2.23,0,0,1,.3.68c0,.14-.06.25-.3.34s-.53.18-.85.27a4.75,4.75,0,0,1-1.15.14h-.47a6.7,6.7,0,0,1-2.13-.27,6,6,0,0,1-1.66-.95,5.52,5.52,0,0,1-2.23-4.87q0-1.15.1-3.25t.27-4.46q.17-2.37.27-4.66t.1-3.85q0-5-.27-8.45a29.3,29.3,0,0,0-.88-5.58,7.68,7.68,0,0,0-1.52-3.11,2.83,2.83,0,0,0-2.13-1A5.45,5.45,0,0,0,155,7.4a12.52,12.52,0,0,0-2.6,4,21.6,21.6,0,0,0-1.39,5,31.81,31.81,0,0,0-.41,4.7q0,.47.07,1.83a17.27,17.27,0,0,0,.37,2.77,8.24,8.24,0,0,0,.95,2.5,1.94,1.94,0,0,0,1.72,1.08l1.22-.07a6.07,6.07,0,0,1,.88.1,5.08,5.08,0,0,1,1.22.37,3.93,3.93,0,0,1,1.08.71,1.46,1.46,0,0,1,.47,1.12.72.72,0,0,1-.44.64,4.18,4.18,0,0,1-1,.37,9.3,9.3,0,0,1-1,.2l-.64.07a7.19,7.19,0,0,1-3.75-.95,7.66,7.66,0,0,1-2.6-2.57,12.47,12.47,0,0,1-1.52-3.75,19.37,19.37,0,0,1-.51-4.5,26.48,26.48,0,0,1,.85-6.56,23.7,23.7,0,0,1,2.43-6.05A15.15,15.15,0,0,1,154.15,4a7.88,7.88,0,0,1,4.94-1.72,5.39,5.39,0,0,1,2.64.71,10.29,10.29,0,0,1,2.4,1.86,15.82,15.82,0,0,1,2,2.54,19.92,19.92,0,0,1,1.49,2.81,12.7,12.7,0,0,1,.88,2.74q.34,1.59.54,3.31t.3,3.48q.1,1.76.17,3.18.07.88.13,2.3t.1,3q0,1.59,0,3.18v2.87q.41-1.49,1.39-4.7t2.1-7.07q1.12-3.85,2.16-7.78T177.08,8q.27-1.08,1-1.28a4.46,4.46,0,0,1,1.18-.2,4.29,4.29,0,0,1,2.47.88A12.28,12.28,0,0,1,184,9.43a13.77,13.77,0,0,1,1.66,2.37,4.3,4.3,0,0,1,.64,1.79q-.68.34-1.15,2.13a32,32,0,0,0-.78,4.63,39.1,39.1,0,0,0-.36,4.07c-.11,2.46-.28,7.49-.28,10.2q0,1.29.07,3a17,17,0,0,0,.44,3.31,7.06,7.06,0,0,0,1.18,2.64,2.7,2.7,0,0,0,2.3,1.08.8.8,0,0,0,.34-.1,2.25,2.25,0,0,1,.61-.17A2.86,2.86,0,0,1,188.77,44.9Z"/><path class="cls-1" d="M205.27,34.69a19.94,19.94,0,0,1-.74,3.38A13.21,13.21,0,0,1,203,41.35a8.44,8.44,0,0,1-2.47,2.5,6.49,6.49,0,0,1-3.65,1,6.28,6.28,0,0,1-3.45-1.15A6.08,6.08,0,0,1,191,40.5a12.11,12.11,0,0,1-.64-3.79q0-.54.07-1.62t.07-2.64V25q0-.54,0-1.15a6.24,6.24,0,0,0-.17-1.15,3.16,3.16,0,0,0-.24-.61,1.3,1.3,0,0,1-.17-.47.5.5,0,0,1,.34-.44A2.63,2.63,0,0,1,191,21a7.5,7.5,0,0,1,1.15-.07l.95,0a7.93,7.93,0,0,1,1.55.24,4.49,4.49,0,0,1,1.45.64,1.43,1.43,0,0,1,.64,1.25c0,.14,0,.38-.24.74a7,7,0,0,0-.57,1.89q-.07.54-.14,1t-.14,1q-.07.54-.14,1.32t-.13,2V35q0,1.08.07,2.2a10.53,10.53,0,0,0,.3,2,3.34,3.34,0,0,0,.78,1.49,1.86,1.86,0,0,0,1.42.57,2.74,2.74,0,0,0,2-.74,12.47,12.47,0,0,0,1.15-1.28,7.53,7.53,0,0,0,1.15-2.54q.41-1.52.74-3.14l.14-.68a1.13,1.13,0,0,1,1.22-1q1,0,1,1.42v.34Z"/><path class="cls-1" d="M225.76,47.26a1,1,0,0,1-.61.95,2.84,2.84,0,0,1-1.15.27l-1.35-.14c-.23,0-.34.14-.34.41l-.07.81q.07,1.83.07,4.6V59.5q0,2.7-.17,5.31a21.46,21.46,0,0,1-.78,4.67,8.54,8.54,0,0,1-1.72,3.31A3.91,3.91,0,0,1,216.56,74q-1.69,0-3.55-.17a10.66,10.66,0,0,1-3.38-.85,6.2,6.2,0,0,1-2.5-2,5.81,5.81,0,0,1-1-3.55,21.33,21.33,0,0,1,.51-4.56,24.49,24.49,0,0,1,1.46-4.53,26.76,26.76,0,0,1,2.28-4.19,22.64,22.64,0,0,1,2.89-3.55q.82-.81,1.8-1.66t1.73-1.39v-.07q.13-1.42.2-2.84t.07-2.91q-.34.61-.82,1.66a13.19,13.19,0,0,1-1.12,2,8.67,8.67,0,0,1-1.46,1.66,2.72,2.72,0,0,1-1.83.71,2.11,2.11,0,0,1-1-.2,2.66,2.66,0,0,0-1.15-.2,6.18,6.18,0,0,1-3.16-1,5.87,5.87,0,0,1-2-2.43,12.72,12.72,0,0,1-1-3.68,37.84,37.84,0,0,1-.27-4.77,59.69,59.69,0,0,1,.37-6.56,29.3,29.3,0,0,1,1.32-6.19,13.17,13.17,0,0,1,2.55-4.6,5.17,5.17,0,0,1,4-1.79,1.84,1.84,0,0,1,.71.2l.95.44,1,.47a4.6,4.6,0,0,0,.78.3,18.54,18.54,0,0,1,2.51.68,6.8,6.8,0,0,1,2,1,4.45,4.45,0,0,1,1.29,1.69,6.3,6.3,0,0,1,.48,2.6,10.5,10.5,0,0,1-.17,2A12.1,12.1,0,0,0,221,28a.76.76,0,0,0,.38.74,4.27,4.27,0,0,0,.88.34,7.78,7.78,0,0,1,.9.3.69.69,0,0,1,.41.71,2,2,0,0,1-.3.64q-.3.51-.37.64a7.92,7.92,0,0,0-.34,1.72q-.14,1.18-.2,2.57t-.1,2.84q0,1.45,0,2.6v2.33q0,1.46.07,2.4h.27a1.14,1.14,0,0,0,.27,0l.2,0a5.31,5.31,0,0,1,1.66.37Q225.76,46.52,225.76,47.26Zm-8.59-20.89a12,12,0,0,0-.14-1.69,7.77,7.77,0,0,0-.48-1.79,3.75,3.75,0,0,0-1-1.42,2.33,2.33,0,0,0-1.6-.57,3.55,3.55,0,0,0-2.42,1,8.67,8.67,0,0,0-2,2.87,19.94,19.94,0,0,0-1.36,4.53,32.41,32.41,0,0,0-.51,6.05q0,1.42.1,2.94a22,22,0,0,0,.34,2.74,5.94,5.94,0,0,0,.74,2,1.51,1.51,0,0,0,1.32.81,3.26,3.26,0,0,0,2.5-1.22,10.06,10.06,0,0,0,1.79-3,20.76,20.76,0,0,0,1.08-3.72,24.27,24.27,0,0,0,.44-3.35,19.59,19.59,0,0,1,.22-2.67,2.83,2.83,0,0,1,.29-.91,2.62,2.62,0,0,0,.54-1.28A9.55,9.55,0,0,0,217.17,26.37Zm-.27,23.46a12.29,12.29,0,0,0-3,3,24.32,24.32,0,0,0-2.42,4.26,27.6,27.6,0,0,0-1.6,4.67,18.1,18.1,0,0,0-.58,4.26,9.05,9.05,0,0,0,.14,1.49,6.55,6.55,0,0,0,.44,1.52,3.09,3.09,0,0,0,.89,1.18,2.15,2.15,0,0,0,1.4.47,2.86,2.86,0,0,0,2.35-1.18A8.86,8.86,0,0,0,216,66.73a16.51,16.51,0,0,0,.68-3.31q.17-1.69.17-2.7v-.61c0-.27,0-.79,0-1.55s0-1.84,0-3.21Z"/><path class="cls-1" d="M253.54,35.9a13.73,13.73,0,0,1-.57,2.67A14.9,14.9,0,0,1,251.48,42a11,11,0,0,1-2.5,2.91,5.62,5.62,0,0,1-3.68,1.25,4.59,4.59,0,0,1-3.35-1.22,7.63,7.63,0,0,1-1.89-3.35,22.14,22.14,0,0,1-.81-5.11q-.17-3-.17-6.49V28.43q0-.91.07-1.59a27,27,0,0,0-1.62,3.75q-.81,2.27-1.45,4.83t-1,5.24a41.5,41.5,0,0,0-.47,5q-.68.13-1.45.34a7.13,7.13,0,0,1-1.79.2,8,8,0,0,1-.95-.07,4.77,4.77,0,0,1-1.08-.27,2.52,2.52,0,0,1-.91-.57,1.32,1.32,0,0,1-.37-1,2,2,0,0,1,.24-.61,4.93,4.93,0,0,0,.24-1.89V3a2.43,2.43,0,0,0-.24-1.28A1.37,1.37,0,0,1,228,.88q0-.27.47-.44a6.39,6.39,0,0,1,1.08-.27A11.28,11.28,0,0,1,230.79,0l1,0a9.47,9.47,0,0,1,3.58.74q-.34,1.83-.64,4.83t-.58,6.22Q233.94,15,233.8,18t-.14,4.56V23q0,.3,0,1.56t-.07,3.89q0,2.64-.1,7.44s.1-.47.3-1.28.46-1.83.78-3,.69-2.52,1.12-3.92.88-2.69,1.35-3.89a18.35,18.35,0,0,1,1.45-3q.74-1.18,1.42-1.18a9.81,9.81,0,0,1,2.06.3,2.22,2.22,0,0,1,1.66,1,3.35,3.35,0,0,0,.57,1.15,6,6,0,0,0,.54.54,3.49,3.49,0,0,1,.41.41.94.94,0,0,1,.17.61q-.07.2-.3,1.35t-.47,2.87q-.24,1.72-.44,3.79t-.2,4.09a20.08,20.08,0,0,0,.47,4.67q.47,2,1.83,2a3.16,3.16,0,0,0,2.23-.81,6.51,6.51,0,0,0,1.45-2,12.25,12.25,0,0,0,.88-2.6q.3-1.38.51-2.47.34-1.42,1-1.42a1.1,1.1,0,0,1,1,.54,2.89,2.89,0,0,1,.3,1.42Z"/><path class="cls-1" d="M251.45,33.27q.07-3.45.2-7t.27-6.63q0-.54-1.08-.74t-2.43-.41a10.66,10.66,0,0,1-2.43-.64,1.51,1.51,0,0,1-1.08-1.45q0-.88,1.76-1t5.21-.14q.27,0,.37-.81t.14-2.06q0-1.25.07-2.67t.1-2.67a14.07,14.07,0,0,1,.24-2.06q.17-.81.44-.81a9.66,9.66,0,0,1,1.22.14q.88.14,1.83.37a8.94,8.94,0,0,1,1.66.58q.71.34.71.74l-.74,8.79c0,.27.24.46.71.57a9.28,9.28,0,0,0,1.83.2q1.12,0,2.37,0a13.2,13.2,0,0,1,2.37.2,5.25,5.25,0,0,1,1.83.64,1.45,1.45,0,0,1,.71,1.32,1.28,1.28,0,0,1-.13.44c-.09.2-.2.3-.34.3a.68.68,0,0,1-.37-.2,2.32,2.32,0,0,0-1.25-.2l-1.49.07q-1.22.07-2.57.2t-2.47.3q-1.12.17-1.25.44a10,10,0,0,0-.17,1.59q-.1,1.45-.2,3.82t-.17,5.44q-.07,3.08-.07,6.46a22.49,22.49,0,0,0,.14,2.5,14.09,14.09,0,0,0,.41,2.2,4.92,4.92,0,0,0,.71,1.59,1.27,1.27,0,0,0,1,.61,2.26,2.26,0,0,0,1.62-.74,7.21,7.21,0,0,0,1.35-2,19.68,19.68,0,0,0,1.08-2.91q.47-1.62.81-3.31a4.72,4.72,0,0,1,.47-1.45.89.89,0,0,1,.81-.44,1.3,1.3,0,0,1,.85.3,1.82,1.82,0,0,1,.37,1.39,3.52,3.52,0,0,1-.07.88q-.2,1.22-.78,3.35a24.9,24.9,0,0,1-1.55,4.19,14.64,14.64,0,0,1-2.4,3.62,4.36,4.36,0,0,1-3.31,1.55,5,5,0,0,1-3.18-1,8.12,8.12,0,0,1-2.27-2.91,17.09,17.09,0,0,1-1.39-4.4,29.63,29.63,0,0,1-.47-5.44Z"/><path class="cls-1" d="M199.87,12.8a6.53,6.53,0,0,0-5.63,5.63.05.05,0,0,1-.11,0,6.53,6.53,0,0,0-5.63-5.63.05.05,0,0,1,0-.11,6.53,6.53,0,0,0,5.63-5.63.05.05,0,0,1,.11,0,6.53,6.53,0,0,0,5.63,5.63A.05.05,0,0,1,199.87,12.8Z"/></g></g></svg>