<svg xmlns="http://www.w3.org/2000/svg" viewBox="0 0 143.67 143.67"><defs><style>.cls-1{fill:#ffc107;}.cls-2{fill:#212121;opacity:0.4;}.cls-3{fill:#fafafa;}</style></defs><title>culture_icon</title><g id="Layer_2" data-name="Layer 2"><g id="Layer_4" data-name="Layer 4"><g id="Theatre"><circle class="cls-1" cx="71.84" cy="71.84" r="71.84"/><path class="cls-2" d="M142.69,83.75a71.89,71.89,0,0,1-47.06,55.87L54,98,40.81,80.63,30.58,52.49,81.8,39.67,109,66.86l8.4-8.4Z"/><path class="cls-3" d="M90.45,51.34c-1.69-.61-3.33-1.23-4.91-1.86-.59,12.81-1.05,20.1-4.78,27a34.89,34.89,0,0,1-3.28,5,17.32,17.32,0,0,1,1.93.57c6.13,2.2,9.88,7.37,8.38,11.53L71.71,87.77c-1.74,1.71-3.74,3.56-6,5.63,1.66,3.1,3.59,6.59,5.83,10.6v0c35.2-13.75,32.21-13,45.88-45.54A161.57,161.57,0,0,1,90.45,51.34Zm-.58,18.41s4-4.33,7.41-4.81,7.56,1.57,7,4.52C102.65,78,89.87,69.75,89.87,69.75Z"/><path class="cls-3" d="M81.79,39.67A161.56,161.56,0,0,1,54,42.1a162.16,162.16,0,0,1-27.75-2.42C28.12,74.93,25.57,73.2,54,98.07v0C82.51,73.18,80,74.92,81.79,39.67ZM65.07,52.58c3.09-1.62,7.65-1.08,8.11,1.88,1.35,8.56-13.46,5.15-13.46,5.15S62,54.2,65.07,52.58ZM34.89,54.46c.47-3,5-3.5,8.11-1.88s5.35,7,5.35,7S33.55,63,34.89,54.46ZM54,82.72c-6.51,0-11.79-3.59-11.79-8H65.83C65.83,79.14,60.55,82.72,54,82.72Z"/></g></g></g></svg>