<svg xmlns="http://www.w3.org/2000/svg" viewBox="0 0 64 64"><defs><style>.cls-1{fill:#dc4335;}.cls-2{fill:#fafafa;}</style></defs><title>google_plus_icon_1</title><g id="Layer_2" data-name="Layer 2"><g id="Footer"><circle class="cls-1" cx="32" cy="32" r="32"/><path class="cls-2" d="M24.61,30.15v4.44h7.34c-.3,1.9-2.22,5.58-7.34,5.58a8.17,8.17,0,0,1,0-16.34,7.28,7.28,0,0,1,5.16,2l3.51-3.38a12.4,12.4,0,0,0-8.67-3.38,12.94,12.94,0,1,0,0,25.87C32.07,44.94,37,39.69,37,32.3a11.93,11.93,0,0,0-.2-2.14Z"/><path class="cls-2" d="M52.33,30.15h-3.7v-3.7h-3.7v3.7h-3.7v3.7h3.7v3.7h3.7v-3.7h3.7Z"/></g></g></svg>