<svg xmlns="http://www.w3.org/2000/svg" viewBox="0 0 56.72 56.72"><defs><style>.cls-1{fill:#00838f;}.cls-2{fill:#212121;opacity:0.6;}.cls-3{fill:#fff;}</style></defs><title>icon_locate_me</title><g id="Layer_2" data-name="Layer 2"><g id="Navigation_Drawer" data-name="Navigation Drawer"><circle class="cls-1" cx="28.36" cy="28.36" r="28.36"/><path class="cls-2" d="M34.66,9.56l21.84,22A28.43,28.43,0,0,1,31.22,56.48L15.35,40.66l1.13-2.07,2.25-.6,9.67-1.18V34.33L24,24l-2.64-8.48,5.72-5.93Z"/><path class="cls-3" d="M37.39,16.2a9.07,9.07,0,0,0-18.14,0,8,8,0,0,0,.34,2.6A19.52,19.52,0,0,0,23,25.35a28,28,0,0,1,3,5,23.86,23.86,0,0,1,1.47,4.29l0,.14h0c.05.25.09.47.12.66l.62,4.08.68-4v-.06A26,26,0,0,1,31.24,29a28,28,0,0,1,2.37-3.68A19.44,19.44,0,0,0,37,18.78,8.26,8.26,0,0,0,37.39,16.2Zm-9.11,6.34A5.72,5.72,0,1,1,34,16.81,5.72,5.72,0,0,1,28.28,22.53Z"/><path class="cls-3" d="M28.4,43a43.31,43.31,0,0,1-9.09-.85c-1.78-.4-3.91-1.12-3.91-2.24s2.13-1.84,3.91-2.24a43.31,43.31,0,0,1,9.09-.85,43.31,43.31,0,0,1,9.09.85c1.78.4,3.91,1.12,3.91,2.24s-2.13,1.84-3.91,2.24A43.31,43.31,0,0,1,28.4,43Zm0-5.78a42.9,42.9,0,0,0-9,.84c-2.25.51-3.59,1.2-3.59,1.84s1.34,1.33,3.59,1.84a42.9,42.9,0,0,0,9,.84,42.9,42.9,0,0,0,9-.84c2.25-.51,3.59-1.2,3.59-1.84s-1.34-1.33-3.59-1.84A42.9,42.9,0,0,0,28.4,37.22Z"/></g></g></svg>