<svg xmlns="http://www.w3.org/2000/svg" viewBox="0 0 19.61 20.15"><defs><style>.cls-1{fill:#212121;}</style></defs><title>icon_calendar</title><g id="Layer_2" data-name="Layer 2"><g id="Navigation_Drawer" data-name="Navigation Drawer"><path class="cls-1" d="M17.74,2.41H16v0H14.66A1.87,1.87,0,0,1,13,4.11a1.87,1.87,0,0,1-1.69-1.66h-.78v0H8.77v0H8.33A1.87,1.87,0,0,1,6.64,4.11,1.87,1.87,0,0,1,5,2.44H3.28v0H1.87v0H0V20.15H19.61V2.44H17.74Zm-14.26,16H1.74V16.67H3.48Zm0-2.34H1.74V14.32H3.48Zm0-2.34H1.74V12H3.48Zm2.41,4.69H4.15V16.67H5.89Zm0-2.34H4.15V14.32H5.89Zm0-2.34H4.15V12H5.89ZM8.3,18.41H6.56V16.67H8.3Zm0-2.34H6.56V14.32H8.3Zm0-2.34H6.56V12H8.3Zm0-2.41H6.56V9.57H8.3Zm2.41,7.1H9V16.67h1.74Zm0-2.34H9V14.32h1.74Zm0-2.34H9V12h1.74Zm0-2.41H9V9.57h1.74Zm2.41,7.1H11.38V16.67h1.74Zm0-2.34H11.38V14.32h1.74Zm0-2.34H11.38V12h1.74Zm0-2.41H11.38V9.57h1.74Zm2.41,4.75H13.79V14.32h1.74Zm0-2.34H13.79V12h1.74Zm0-2.41H13.79V9.57h1.74Zm2.41,4.75H16.2V14.32h1.74Zm0-2.34H16.2V12h1.74Zm0-2.41H16.2V9.57h1.74Zm-.13-4.89V7.83H1.74V6.43Z"/><rect class="cls-1" x="5.7" width="1.78" height="3.21"/><rect class="cls-1" x="12.03" width="1.79" height="3.21"/></g></g></svg>