<svg xmlns="http://www.w3.org/2000/svg" viewBox="0 0 240 66.38"><defs><style>.cls-1{fill:#212121;}.cls-2{fill:#00838f;}</style></defs><title>Asset 10</title><g id="Layer_2" data-name="Layer 2"><g id="Logo"><g id="Logo-2" data-name="Logo"><path class="cls-1" d="M35.1,40.25a6,6,0,0,1-1.52.91,7.5,7.5,0,0,1-3.16.55,3.91,3.91,0,0,1-2.25-.61q-.89-.61-.89-2.85-.12-2.42-.31-4.58t-.43-4.33q-1.58.06-3.46.06t-3.27.12a39.69,39.69,0,0,1-1.76,5.09,17.51,17.51,0,0,1-2.58,4.3,11.45,11.45,0,0,1-3.7,3A11.21,11.21,0,0,1,6.67,43a10.38,10.38,0,0,1-2.33-.27,6.59,6.59,0,0,1-2.15-.91A4.92,4.92,0,0,1,.61,40.1,5.25,5.25,0,0,1,0,37.47a2,2,0,0,1,.48-1.3,1.52,1.52,0,0,1,1.21-.58,1.54,1.54,0,0,1,1.58.82q.36.82.7,1.82A5,5,0,0,0,5.06,40a3.69,3.69,0,0,0,2.76.82,5.25,5.25,0,0,0,2.7-.73,9.48,9.48,0,0,0,2.27-1.88,13.4,13.4,0,0,0,1.79-2.55A20.26,20.26,0,0,0,15.82,33q.55-1.58.73-2.18t.3-.91-.18-.12q-1.58.18-2.7.27t-2.09.09A12.36,12.36,0,0,1,9.76,30a1,1,0,0,1-.85-1.12A1,1,0,0,1,9.43,28a3.88,3.88,0,0,1,1.48-.48q1-.15,2.27-.24L16.13,27l1.15-.09q.48,0,.55-.21.55-1.7,1-3.46l1-3.52q.79-3.09,1.39-6.76a44.08,44.08,0,0,0,.61-7.18q0-.61,0-1c0-.26,0-.45,0-.58a2.16,2.16,0,0,1,.79-.12,4,4,0,0,0,1-.12,10,10,0,0,0,1.18-.39,4.38,4.38,0,0,1,1.61-.27,5.65,5.65,0,0,1,1,.15,10.6,10.6,0,0,1,1.45.42,8.94,8.94,0,0,1,1.32.61q.58.33.58.7v9.64a85.36,85.36,0,0,0,.48,9.25q.48,4.46,1.15,7.94a42.85,42.85,0,0,0,1.42,5.7Q34.49,40,35.1,40.25Zm-8.91-13.4q-.12-1.33-.33-3.15T25.34,20q-.3-1.88-.61-3.64t-.61-2.91q-.18.49-.52,1.64l-.76,2.61q-.42,1.45-.82,3t-.76,2.91q-.36,1.33-.58,2.21a8.79,8.79,0,0,0-.21,1Z"/><path class="cls-1" d="M38.74,29.83q.06-3.09.18-6.31t.24-5.94q0-.48-1-.67T36,16.55A9.56,9.56,0,0,1,33.83,16a1.35,1.35,0,0,1-1-1.3q0-.79,1.58-.91t4.67-.12q.24,0,.33-.73t.12-1.85q0-1.12.06-2.39t.09-2.39a12.62,12.62,0,0,1,.21-1.85q.15-.73.39-.73a8.66,8.66,0,0,1,1.09.12q.79.12,1.64.33a8,8,0,0,1,1.48.52q.64.3.64.67l-.67,7.88c0,.24.21.41.64.52a8.32,8.32,0,0,0,1.64.18q1,0,2.12,0a11.84,11.84,0,0,1,2.12.18,4.71,4.71,0,0,1,1.64.58,1.3,1.3,0,0,1,.64,1.18,1.15,1.15,0,0,1-.12.39c-.08.18-.18.27-.3.27a.61.61,0,0,1-.33-.18,2.08,2.08,0,0,0-1.12-.18l-1.33.06q-1.09.06-2.3.18t-2.21.27q-1,.15-1.12.39a9,9,0,0,0-.15,1.42q-.09,1.3-.18,3.42T44,26.83q-.06,2.76-.06,5.79A20.17,20.17,0,0,0,44,34.86a12.63,12.63,0,0,0,.36,2A4.42,4.42,0,0,0,45,38.25a1.14,1.14,0,0,0,.94.55,2,2,0,0,0,1.45-.67,6.46,6.46,0,0,0,1.21-1.82,17.65,17.65,0,0,0,1-2.61q.42-1.45.73-3a4.23,4.23,0,0,1,.42-1.3.8.8,0,0,1,.73-.39,1.17,1.17,0,0,1,.76.27,1.64,1.64,0,0,1,.33,1.24,3.16,3.16,0,0,1-.06.79q-.18,1.09-.7,3a22.33,22.33,0,0,1-1.39,3.76,13.13,13.13,0,0,1-2.15,3.24,3.91,3.91,0,0,1-3,1.39,4.52,4.52,0,0,1-2.85-.94,7.28,7.28,0,0,1-2-2.61,15.32,15.32,0,0,1-1.24-3.94,26.57,26.57,0,0,1-.42-4.88Z"/><path class="cls-1" d="M74.57,32.19a12.31,12.31,0,0,1-.52,2.39,13.36,13.36,0,0,1-1.33,3,9.84,9.84,0,0,1-2.24,2.61,5,5,0,0,1-3.3,1.12,4.12,4.12,0,0,1-3-1.09,6.84,6.84,0,0,1-1.7-3,19.85,19.85,0,0,1-.73-4.58q-.15-2.67-.15-5.82V25.49q0-.82.06-1.42a24.16,24.16,0,0,0-1.45,3.36q-.73,2-1.3,4.33T58,36.46A37.21,37.21,0,0,0,57.53,41q-.61.12-1.3.3a6.39,6.39,0,0,1-1.61.18,7.15,7.15,0,0,1-.85-.06,4.28,4.28,0,0,1-1-.24,2.26,2.26,0,0,1-.82-.52,1.19,1.19,0,0,1-.33-.88,1.77,1.77,0,0,1,.21-.55,4.42,4.42,0,0,0,.21-1.7V2.67a2.18,2.18,0,0,0-.21-1.15,1.23,1.23,0,0,1-.21-.73q0-.24.42-.39a5.73,5.73,0,0,1,1-.24A10.11,10.11,0,0,1,54.17,0l.94,0a8.49,8.49,0,0,1,3.21.67Q58,2.3,57.74,5t-.52,5.58q-.24,2.88-.36,5.52t-.12,4.09v.45q0,.27,0,1.39t-.06,3.49q0,2.36-.09,6.67s.09-.42.27-1.15.41-1.64.7-2.73.62-2.26,1-3.52.79-2.41,1.21-3.49A16.45,16.45,0,0,1,61,18.64q.67-1.06,1.27-1.06a8.79,8.79,0,0,1,1.85.27,2,2,0,0,1,1.49.94,3,3,0,0,0,.52,1,5.37,5.37,0,0,0,.48.48,3.13,3.13,0,0,1,.36.36.84.84,0,0,1,.15.55q-.06.18-.27,1.21T66.47,25q-.21,1.55-.39,3.39t-.18,3.67a18,18,0,0,0,.42,4.18Q66.74,38,68,38a2.84,2.84,0,0,0,2-.73,5.84,5.84,0,0,0,1.3-1.82,11,11,0,0,0,.79-2.33q.27-1.24.45-2.21.3-1.27.91-1.27a1,1,0,0,1,.94.48,2.59,2.59,0,0,1,.27,1.27Z"/><path class="cls-1" d="M89.72,31.46a12.3,12.3,0,0,1-.55,3.4,11.39,11.39,0,0,1-1.7,3.49A9.94,9.94,0,0,1,84.54,41a8.05,8.05,0,0,1-4.27,1.09,8.62,8.62,0,0,1-4-.85,7.64,7.64,0,0,1-2.7-2.3A9.28,9.28,0,0,1,72,35.56a18.43,18.43,0,0,1-.45-4.15,25,25,0,0,1,.48-4.67A20.1,20.1,0,0,1,73.6,22a11.91,11.91,0,0,1,2.61-3.7A5.37,5.37,0,0,1,80,16.79a4.8,4.8,0,0,1,2.06.45,6,6,0,0,1,1.7,1.18,5.49,5.49,0,0,1,1.15,1.7,5.83,5.83,0,0,1,.48,2l.06.85A11.85,11.85,0,0,1,85,26.16a12.68,12.68,0,0,1-1.39,3.21,8.84,8.84,0,0,1-2.24,2.49,4.92,4.92,0,0,1-3,1,5.91,5.91,0,0,1-.76-.06,6,6,0,0,1-.88-.18v1.76A4,4,0,0,0,77,35.59a6,6,0,0,0,.82,1.55,5.31,5.31,0,0,0,1.42,1.33,3.83,3.83,0,0,0,2.15.58,5.38,5.38,0,0,0,2.88-.7,6,6,0,0,0,1.85-1.79A8.8,8.8,0,0,0,87.2,34.1q.39-1.36.64-2.64a4.25,4.25,0,0,1,.36-1.15.65.65,0,0,1,.61-.3q.91,0,.91,1Zm-7.15-9.4a2.31,2.31,0,0,0-.27-1,1,1,0,0,0-1-.55,2.26,2.26,0,0,0-1.88,1.15,11.06,11.06,0,0,0-1.3,2.64,18.65,18.65,0,0,0-.76,2.85,13.24,13.24,0,0,0-.24,1.79v.18a3.44,3.44,0,0,0,.09.88q.09.33.64.33h.3a2.72,2.72,0,0,0,2.06-.91,7,7,0,0,0,1.36-2.18,13.29,13.29,0,0,0,.76-2.61,12.74,12.74,0,0,0,.24-2.18Z"/><path class="cls-1" d="M97.54,27.58a12.06,12.06,0,0,0-1.49,2.82,31.11,31.11,0,0,0-1,3.21q-.42,1.67-.7,3.33t-.58,3.18q-.12.36-.94.48a9.06,9.06,0,0,1-1.18.12,10.71,10.71,0,0,1-1.79-.12A1.66,1.66,0,0,1,88.81,40a3.22,3.22,0,0,1-.55-1.39,23.06,23.06,0,0,1-.3-2.52l.79-18q0-.79.85-.79a5.54,5.54,0,0,1,.85.09,9.39,9.39,0,0,1,1.15.27,4.07,4.07,0,0,1,1,.45.77.77,0,0,1,.42.64V31.1a1.71,1.71,0,0,0,.18-.48q.42-1.09,1-2.7a32.38,32.38,0,0,1,1.33-3.06,14.22,14.22,0,0,1,1.55-2.49,2.23,2.23,0,0,1,1.67-1,2.43,2.43,0,0,1,1.67.52,3.32,3.32,0,0,1,.88,1.3,5.79,5.79,0,0,1,.36,1.7q.06.91.06,1.76,0,.61-.12,2t-.12,4.18a12.28,12.28,0,0,0,.3,2.85q.3,1.27,1.21,1.27a1.61,1.61,0,0,0,1.21-.61,6.76,6.76,0,0,0,1-1.52,11.78,11.78,0,0,0,.76-1.94,9,9,0,0,0,.36-1.94q.06-1.15.91-1.15a.73.73,0,0,1,.73.36,1.88,1.88,0,0,1,.18.85v.12a13.73,13.73,0,0,1-.45,2.73,11.72,11.72,0,0,1-1.15,2.85,7.26,7.26,0,0,1-2,2.24,4.81,4.81,0,0,1-3,.91q-2.73,0-3.49-2A17.16,17.16,0,0,1,97.42,32Z"/><path class="cls-1" d="M121.18,37a2.73,2.73,0,0,1-1,2.24A6.26,6.26,0,0,1,118,40.44a12,12,0,0,1-2.49.45q-1.24.09-1.79.09a14.83,14.83,0,0,1-2.09-.18,14.09,14.09,0,0,1-2.42-.58,5.66,5.66,0,0,1-2-1.12,2.33,2.33,0,0,1-.82-1.82,1,1,0,0,1,.52-.94,2,2,0,0,1,2.3.21l1.33,1a12.6,12.6,0,0,0,1.55,1,3.83,3.83,0,0,0,1.94.48,3.71,3.71,0,0,0,1.3-.33,1.19,1.19,0,0,0,.82-1.18,2.46,2.46,0,0,0-.7-1.64,14.27,14.27,0,0,0-1.76-1.64q-1.06-.85-2.27-1.76a21,21,0,0,1-2.27-2,10.24,10.24,0,0,1-1.76-2.33,5.71,5.71,0,0,1-.7-2.79,5,5,0,0,1,1.36-3.58,10.18,10.18,0,0,1,3.21-2.3,16.24,16.24,0,0,1,3.79-1.21,17.59,17.59,0,0,1,3-.36,5.39,5.39,0,0,1,2.06.42,1.61,1.61,0,0,1,1,1.64,5.47,5.47,0,0,1-.15,1.06,5.8,5.8,0,0,1-.48,1.36,4.18,4.18,0,0,1-.88,1.18,2,2,0,0,1-1.39.52.74.74,0,0,1-.48-.21l-.55-.48a5,5,0,0,0-.64-.48,1.39,1.39,0,0,0-.76-.21,3.34,3.34,0,0,0-3,1.24,4.59,4.59,0,0,0-.85,2.64,3.68,3.68,0,0,0,1.42,2.55q1.42,1.33,3.15,2.67t3.15,2.64A3.59,3.59,0,0,1,121.18,37Z"/><path class="cls-2" d="M169.26,40.25a1.47,1.47,0,0,1-.27.91,2,2,0,0,1-.67.58,4,4,0,0,1-.85.33,3,3,0,0,1-.76.12,5.38,5.38,0,0,1-4-1.45,9,9,0,0,1-2.12-3.61,18.62,18.62,0,0,1-.85-4.64q-.15-2.49-.15-4.55,0-.6.06-2.15t.09-3.21q0-1.67.09-3t.06-1.58q0-.79-.3-.79a11.71,11.71,0,0,0-.94,2.06q-.58,1.52-1.24,3.58T156,27.28q-.7,2.36-1.24,4.61T153.89,36a18.2,18.2,0,0,0-.33,3,2.19,2.19,0,0,0,.27,1.09,2,2,0,0,1,.27.61c0,.12-.05.22-.27.3l-.76.24a4.26,4.26,0,0,1-1,.12h-.42a6,6,0,0,1-1.91-.24,5.39,5.39,0,0,1-1.49-.85,4.95,4.95,0,0,1-2-4.36q0-1,.09-2.91t.24-4q.15-2.12.24-4.18t.09-3.46q0-4.49-.24-7.58a26.27,26.27,0,0,0-.79-5A6.89,6.89,0,0,0,144.49,6a2.54,2.54,0,0,0-1.91-.88,4.88,4.88,0,0,0-3.64,1.48,11.23,11.23,0,0,0-2.33,3.61,19.37,19.37,0,0,0-1.24,4.52A28.52,28.52,0,0,0,135,19q0,.42.06,1.64a15.48,15.48,0,0,0,.33,2.49,7.39,7.39,0,0,0,.85,2.24,1.74,1.74,0,0,0,1.55,1l1.09-.06a5.44,5.44,0,0,1,.79.09,4.55,4.55,0,0,1,1.09.33,3.52,3.52,0,0,1,1,.64,1.31,1.31,0,0,1,.42,1,.64.64,0,0,1-.39.58,3.75,3.75,0,0,1-.88.33,8.34,8.34,0,0,1-.94.18l-.58.06a6.44,6.44,0,0,1-3.36-.85,6.87,6.87,0,0,1-2.33-2.3,11.19,11.19,0,0,1-1.36-3.36,17.37,17.37,0,0,1-.45-4,23.74,23.74,0,0,1,.76-5.88,21.25,21.25,0,0,1,2.18-5.43,13.58,13.58,0,0,1,3.43-4,7.07,7.07,0,0,1,4.43-1.55A4.83,4.83,0,0,1,145,2.7a9.23,9.23,0,0,1,2.15,1.67,14.18,14.18,0,0,1,1.79,2.27,17.86,17.86,0,0,1,1.33,2.52,11.38,11.38,0,0,1,.79,2.45q.3,1.43.48,3t.27,3.12q.09,1.58.15,2.85.06.79.12,2.06t.09,2.7q0,1.43,0,2.85v2.58q.36-1.33,1.24-4.21t1.88-6.34q1-3.46,1.94-7t1.48-6.06q.24-1,.88-1.15a4,4,0,0,1,1.06-.18,3.85,3.85,0,0,1,2.21.79,11,11,0,0,1,2,1.85,12.35,12.35,0,0,1,1.48,2.12,3.85,3.85,0,0,1,.58,1.61q-.61.3-1,1.91a28.7,28.7,0,0,0-.7,4.15A35.06,35.06,0,0,0,165,21.9c-.1,2.2-.25,6.72-.25,9.14q0,1.15.06,2.73a15.22,15.22,0,0,0,.39,3,6.33,6.33,0,0,0,1.06,2.36,2.42,2.42,0,0,0,2.06,1,.72.72,0,0,0,.3-.09,2,2,0,0,1,.55-.15A2.56,2.56,0,0,1,169.26,40.25Z"/><path class="cls-2" d="M184,31.1a17.88,17.88,0,0,1-.67,3A11.85,11.85,0,0,1,182,37.07a7.56,7.56,0,0,1-2.21,2.24,5.82,5.82,0,0,1-3.27.88,5.63,5.63,0,0,1-3.09-1,5.45,5.45,0,0,1-2.15-2.85,10.86,10.86,0,0,1-.58-3.39q0-.48.06-1.46t.06-2.36V22.43q0-.48,0-1a5.59,5.59,0,0,0-.15-1,2.83,2.83,0,0,0-.21-.55,1.17,1.17,0,0,1-.15-.42.45.45,0,0,1,.3-.39,2.35,2.35,0,0,1,.67-.21,6.73,6.73,0,0,1,1-.06l.85,0a7.11,7.11,0,0,1,1.39.21,4,4,0,0,1,1.3.58,1.28,1.28,0,0,1,.58,1.12c0,.12,0,.34-.21.67a6.32,6.32,0,0,0-.52,1.7q-.06.49-.12.88t-.12.88q-.06.49-.12,1.18t-.12,1.79V31.4q0,1,.06,2a9.44,9.44,0,0,0,.27,1.82,3,3,0,0,0,.7,1.33,1.66,1.66,0,0,0,1.27.52,2.46,2.46,0,0,0,1.82-.67,11.18,11.18,0,0,0,1-1.15,6.75,6.75,0,0,0,1-2.27q.36-1.36.67-2.82l.12-.61a1,1,0,0,1,1.09-.91q.91,0,.91,1.27v.3Z"/><path class="cls-2" d="M202.42,42.38a.86.86,0,0,1-.55.85,2.55,2.55,0,0,1-1,.24l-1.21-.12c-.2,0-.3.12-.3.36l-.06.73q.06,1.64.06,4.12v4.79q0,2.42-.15,4.76a19.24,19.24,0,0,1-.7,4.18,7.66,7.66,0,0,1-1.55,3,3.51,3.51,0,0,1-2.76,1.12q-1.52,0-3.18-.15a9.56,9.56,0,0,1-3-.76,5.56,5.56,0,0,1-2.24-1.79,5.21,5.21,0,0,1-.88-3.18,19.12,19.12,0,0,1,.46-4.09,22,22,0,0,1,1.31-4.06,24,24,0,0,1,2-3.76,20.3,20.3,0,0,1,2.59-3.18q.73-.73,1.62-1.49t1.56-1.24v-.06q.12-1.27.18-2.55t.06-2.61q-.31.55-.73,1.48a11.83,11.83,0,0,1-1,1.79,7.78,7.78,0,0,1-1.31,1.49,2.44,2.44,0,0,1-1.64.64,1.89,1.89,0,0,1-.85-.18,2.39,2.39,0,0,0-1-.18,5.54,5.54,0,0,1-2.83-.91,5.26,5.26,0,0,1-1.77-2.18,11.4,11.4,0,0,1-.88-3.3,33.93,33.93,0,0,1-.24-4.27,53.52,53.52,0,0,1,.33-5.88,26.27,26.27,0,0,1,1.19-5.55,11.81,11.81,0,0,1,2.28-4.12,4.64,4.64,0,0,1,3.62-1.61,1.65,1.65,0,0,1,.64.18l.85.39.91.42a4.13,4.13,0,0,0,.7.27,16.62,16.62,0,0,1,2.25.61,6.1,6.1,0,0,1,1.76.94A4,4,0,0,1,198,19a5.65,5.65,0,0,1,.43,2.33,9.41,9.41,0,0,1-.15,1.76,10.85,10.85,0,0,0-.15,2,.68.68,0,0,0,.34.67,3.83,3.83,0,0,0,.79.3,7,7,0,0,1,.81.27.62.62,0,0,1,.36.64,1.76,1.76,0,0,1-.27.58q-.27.45-.33.58a7.1,7.1,0,0,0-.3,1.55q-.12,1.06-.18,2.3t-.09,2.55q0,1.3,0,2.33V39q0,1.3.06,2.15h.24l.24,0,.18,0a4.77,4.77,0,0,1,1.49.33Q202.42,41.71,202.42,42.38Zm-7.7-18.73a10.77,10.77,0,0,0-.12-1.52,7,7,0,0,0-.43-1.61,3.36,3.36,0,0,0-.89-1.27,2.09,2.09,0,0,0-1.44-.52,3.18,3.18,0,0,0-2.17.91,7.77,7.77,0,0,0-1.77,2.58,17.87,17.87,0,0,0-1.22,4.06,29.06,29.06,0,0,0-.46,5.43q0,1.27.09,2.64a19.68,19.68,0,0,0,.3,2.46,5.32,5.32,0,0,0,.67,1.82,1.36,1.36,0,0,0,1.18.73,2.93,2.93,0,0,0,2.24-1.09,9,9,0,0,0,1.61-2.7,18.61,18.61,0,0,0,1-3.33,21.76,21.76,0,0,0,.39-3,17.57,17.57,0,0,1,.19-2.39,2.53,2.53,0,0,1,.26-.82,2.34,2.34,0,0,0,.48-1.15A8.56,8.56,0,0,0,194.72,23.64Zm-.24,21a11,11,0,0,0-2.66,2.73,21.81,21.81,0,0,0-2.17,3.82,24.75,24.75,0,0,0-1.44,4.18,16.23,16.23,0,0,0-.52,3.82,8.12,8.12,0,0,0,.12,1.33,5.87,5.87,0,0,0,.4,1.36A2.77,2.77,0,0,0,189,63a1.92,1.92,0,0,0,1.25.42,2.56,2.56,0,0,0,2.11-1.06,7.94,7.94,0,0,0,1.28-2.52,14.81,14.81,0,0,0,.61-3q.15-1.52.15-2.42v-.55c0-.24,0-.71,0-1.39s0-1.65,0-2.88Z"/><path class="cls-2" d="M227.33,32.19a12.31,12.31,0,0,1-.52,2.39,13.36,13.36,0,0,1-1.33,3,9.84,9.84,0,0,1-2.24,2.61,5,5,0,0,1-3.3,1.12,4.12,4.12,0,0,1-3-1.09,6.84,6.84,0,0,1-1.7-3,19.85,19.85,0,0,1-.73-4.58q-.15-2.67-.15-5.82V25.49q0-.82.06-1.42A24.16,24.16,0,0,0,213,27.43q-.73,2-1.3,4.33t-.94,4.7A37.21,37.21,0,0,0,210.3,41q-.61.12-1.3.3a6.39,6.39,0,0,1-1.61.18,7.15,7.15,0,0,1-.85-.06,4.28,4.28,0,0,1-1-.24,2.26,2.26,0,0,1-.82-.52,1.19,1.19,0,0,1-.33-.88,1.77,1.77,0,0,1,.21-.55,4.42,4.42,0,0,0,.21-1.7V2.67a2.18,2.18,0,0,0-.21-1.15,1.23,1.23,0,0,1-.21-.73q0-.24.42-.39a5.73,5.73,0,0,1,1-.24A10.11,10.11,0,0,1,206.93,0l.94,0a8.49,8.49,0,0,1,3.21.67q-.3,1.64-.58,4.33T210,10.58q-.24,2.88-.36,5.52t-.12,4.09v.45q0,.27,0,1.39t-.06,3.49q0,2.36-.09,6.67s.09-.42.27-1.15.41-1.64.7-2.73.62-2.26,1-3.52.79-2.41,1.21-3.49a16.45,16.45,0,0,1,1.3-2.67q.67-1.06,1.27-1.06a8.79,8.79,0,0,1,1.85.27,2,2,0,0,1,1.49.94,3,3,0,0,0,.52,1,5.37,5.37,0,0,0,.48.48,3.13,3.13,0,0,1,.36.36.84.84,0,0,1,.15.55q-.06.18-.27,1.21T219.24,25q-.21,1.55-.39,3.39t-.18,3.67a18,18,0,0,0,.42,4.18q.42,1.76,1.64,1.76a2.84,2.84,0,0,0,2-.73,5.84,5.84,0,0,0,1.3-1.82,11,11,0,0,0,.79-2.33q.27-1.24.45-2.21.3-1.27.91-1.27a1,1,0,0,1,.94.48,2.59,2.59,0,0,1,.27,1.27Z"/><path class="cls-2" d="M225.45,29.83q.06-3.09.18-6.31t.24-5.94q0-.48-1-.67t-2.18-.36a9.56,9.56,0,0,1-2.18-.58,1.35,1.35,0,0,1-1-1.3q0-.79,1.58-.91t4.67-.12q.24,0,.33-.73t.12-1.85q0-1.12.06-2.39t.09-2.39a12.62,12.62,0,0,1,.21-1.85q.15-.73.39-.73a8.66,8.66,0,0,1,1.09.12q.79.12,1.64.33a8,8,0,0,1,1.48.52q.64.3.64.67l-.67,7.88c0,.24.21.41.64.52a8.32,8.32,0,0,0,1.64.18q1,0,2.12,0a11.84,11.84,0,0,1,2.12.18,4.71,4.71,0,0,1,1.64.58,1.3,1.3,0,0,1,.64,1.18,1.15,1.15,0,0,1-.12.39c-.08.18-.18.27-.3.27a.61.61,0,0,1-.33-.18,2.08,2.08,0,0,0-1.12-.18l-1.33.06q-1.09.06-2.3.18t-2.21.27q-1,.15-1.12.39a9,9,0,0,0-.15,1.42q-.09,1.3-.18,3.42t-.15,4.88q-.06,2.76-.06,5.79a20.17,20.17,0,0,0,.12,2.24,12.63,12.63,0,0,0,.36,2,4.42,4.42,0,0,0,.64,1.42,1.14,1.14,0,0,0,.94.55,2,2,0,0,0,1.45-.67,6.46,6.46,0,0,0,1.21-1.82,17.65,17.65,0,0,0,1-2.61q.42-1.45.73-3a4.23,4.23,0,0,1,.42-1.3.8.8,0,0,1,.73-.39,1.17,1.17,0,0,1,.76.27,1.64,1.64,0,0,1,.33,1.24,3.16,3.16,0,0,1-.06.79q-.18,1.09-.7,3a22.33,22.33,0,0,1-1.39,3.76A13.13,13.13,0,0,1,235,41.34a3.91,3.91,0,0,1-3,1.39,4.52,4.52,0,0,1-2.85-.94,7.28,7.28,0,0,1-2-2.61,15.32,15.32,0,0,1-1.24-3.94,26.57,26.57,0,0,1-.42-4.88Z"/><path class="cls-2" d="M179.2,11.47a5.85,5.85,0,0,0-5,5,0,0,0,0,1-.1,0,5.85,5.85,0,0,0-5-5,0,0,0,0,1,0-.1,5.86,5.86,0,0,0,5-5,0,0,0,0,1,.1,0,5.86,5.86,0,0,0,5,5A0,0,0,0,1,179.2,11.47Z"/></g></g></g></svg>