<svg xmlns="http://www.w3.org/2000/svg" viewBox="0 0 143 143"><defs><style>.cls-1{fill:#7cb342;}.cls-2{fill:#212121;opacity:0.4;}.cls-3{fill:#fafafa;}</style></defs><title>municipal_icon</title><g id="Layer_2" data-name="Layer 2"><g id="Layer_4" data-name="Layer 4"><g id="Parties"><circle class="cls-1" cx="71.5" cy="71.5" r="71.5"/></g><path class="cls-2" d="M81.24,44l55.88,55.88a71.48,71.48,0,0,1-52,41.82L56.63,113.14,69.77,33,81,44.24Z"/><path class="cls-3" d="M91.73,71.82A13.53,13.53,0,0,1,78.21,85.35l-.69,0H67.73v27.8H56.63V85.33h-9.3l-.74,0a14,14,0,0,1-4.3-27.24A10.08,10.08,0,0,1,49.7,41.19c.33,0,.65,0,1,0v-.1a11.27,11.27,0,0,1,22.53-.3h.41a10.84,10.84,0,0,1,8.18,17.95A13.53,13.53,0,0,1,91.73,71.82Z"/><path class="cls-3" d="M105,104.62v-3h3V97.51h-3V94.44h3V90.3H71.62v4.14h1.52v3.07H71.62v4.15h1.52v3h-4v4.15h4V113h4.14v-4.25H100.9V113H105v-4.25h5.33v-4.15Zm-4.14,0H77.28v-3H100.9Zm0-7.11H77.28V94.44H100.9Z"/></g></g></svg>