<svg xmlns="http://www.w3.org/2000/svg" viewBox="0 0 92.01 92.01"><defs><style>.cls-1{fill:#00838f;}.cls-2{fill:#212121;opacity:0.6;}.cls-3{fill:#fafafa;}</style></defs><title>Asset 10</title><g id="Layer_2" data-name="Layer 2"><g id="Logo"><g id="Symbol"><circle class="cls-1" cx="46.01" cy="46.01" r="46.01"/><path class="cls-2" d="M34.62,55.8,66.18,87.36A45.48,45.48,0,0,1,52,91.62L34.62,74.24Z"/><path class="cls-2" d="M72.64,39.17v7.59h0l-32-32V51.24L72.81,83.41a46.21,46.21,0,0,0,16-20.48,46.94,46.94,0,0,0,1.85-5.75Z"/><path class="cls-3" d="M81.85,48a9.22,9.22,0,0,0-9.22,9.22A9.22,9.22,0,0,0,63.41,48a9.22,9.22,0,0,0,9.22-9.22A9.22,9.22,0,0,0,81.85,48Z"/><path class="cls-3" d="M43.85,65a9.22,9.22,0,0,0-9.22,9.22A9.22,9.22,0,0,0,25.41,65a9.22,9.22,0,0,0,9.22-9.22A9.22,9.22,0,0,0,43.85,65Z"/><path class="cls-3" d="M58.88,33A18.23,18.23,0,0,0,40.64,51.25,18.23,18.23,0,0,0,22.41,33,18.24,18.24,0,0,0,40.64,14.77,18.24,18.24,0,0,0,58.88,33Z"/></g></g></g></svg>