<svg xmlns="http://www.w3.org/2000/svg" viewBox="0 0 143 143"><defs><style>.cls-1{fill:#03a9f4;}.cls-2{fill:#212121;opacity:0.4;}.cls-3{fill:#fafafa;}</style></defs><title>venues_icon</title><g id="Layer_2" data-name="Layer 2"><g id="Footer"><g id="Parties"><circle class="cls-1" cx="71.5" cy="71.5" r="71.5"/></g><path class="cls-2" d="M104.92,42.93l37.51,37.51a71.46,71.46,0,0,1-65.5,62.34L45.74,111.59l8.59-73.37,23,23,2-2L62.44,42.37,80.72,31.46,98.56,49.29Z"/><path class="cls-3" d="M105,43,88.86,38.16,71.5,59,54.16,38.16,38,43v1.87c3.47,3.37,5.73,8.73,5.73,14.8S41.46,71.11,38,74.46l7.59,37.14H97.41L105,74.46c-3.46-3.35-5.68-8.72-5.68-14.77a22.6,22.6,0,0,1,5.7-14.8ZM80.64,62.42l6-6.28,6,6.28Z"/><polygon class="cls-3" points="80.65 31.4 80.65 42.39 71.51 36.9 80.65 31.4"/><polygon class="cls-3" points="62.36 31.4 71.51 36.9 62.36 42.39 62.36 31.4"/></g></g></svg>