<svg xmlns="http://www.w3.org/2000/svg" viewBox="0 0 64 64"><defs><style>.cls-1{fill:#ff9100;}.cls-2{fill:#212121;opacity:0.4;}.cls-3{fill:#fafafa;}</style></defs><title>carnival_icon_1</title><g id="Layer_2" data-name="Layer 2"><g id="Sidebar_1.5" data-name="Sidebar 1.5"><circle class="cls-1" cx="32" cy="32" r="32"/><path class="cls-2" d="M64,33A32,32,0,0,1,33.75,64l-18.9-18.9,3.27-3.27-1.58-1.59.34-1.66-1.77-7.86,2.43-7.74,8.34-1.8L28.71,24l6.42-6.42L42,14.73,47.34,17l2.11,2.11.31-.35Z"/><path class="cls-3" d="M27.05,29.94a23.27,23.27,0,0,1,1.22-5.53c1.7-4.81,5-8.9,9.54-10.19a8.53,8.53,0,0,1,2.34-.33A11.38,11.38,0,0,1,47.4,17l0,0a3.43,3.43,0,0,0-.48.07A3.62,3.62,0,0,0,45,18.18h0l-.22-.11-.29-.14-.2-.09-.16-.07L44,17.72l-.21-.08-.21-.08-.21-.08L43,17.34l-.22-.06-.22-.05-.22,0-.22,0-.21,0-.21,0h-.58l-.35.06-.17,0-.16.06-.16.07-.15.09-.21.16-.07.06a2.41,2.41,0,0,0-.63,1c-.52,1.57-.55,4.87-.33,8.33a65.46,65.46,0,0,0,1.26,9.66H26.77A48.24,48.24,0,0,1,27.05,29.94Z"/><path class="cls-3" d="M51.11,47.69a2.4,2.4,0,1,1-4.81,0,.9.9,0,0,1,0-.1s0,0,0-.07a1,1,0,0,1,0-.13.08.08,0,0,1,0,0,.8.8,0,0,1,0-.11l0-.11v0l0-.14,0-.11,0-.08h0l0-.09a2.33,2.33,0,0,1,.2-.35l.06-.08,0,0,.05-.07.07-.08L47,46l0,0,0,0,.06-.06.13-.11.09-.07h0l.07,0,0,0,.07,0h0l.14-.07.13-.06h0l.12,0h0l.1,0,.06,0,.1,0h0l.16,0h.32A2.41,2.41,0,0,1,51.11,47.69Z"/><path class="cls-3" d="M51.68,32.44c-.19,1.1-4.12,7.73-4.22,12.22a2.84,2.84,0,0,0-.4.2c-1-3.32-2.14-9-.3-13.34,1.19-3.64-2,.69-3.25,5.18l-.2,0H41a54.41,54.41,0,0,1-1.12-7.58c-.09-1-.16-1.94-.21-2.84,1.73-1.5,3.71-2.59,5.6-2.19C50.19,25.1,52.37,28.55,51.68,32.44Z"/><path class="cls-3" d="M44.09,39.41v1.73c0,1-.35,1.85-.78,1.85H23.17c-.43,0-.78-.83-.78-1.85V39.41c0-.13,0-.25,0-.37s0,0,0-.06,0-.1,0-.15v-.09s0-.06,0-.09a2.62,2.62,0,0,1,.19-.61l.05-.1h0l.06-.09,0,0,0,0,0,0,0,0,0,0,0,0,0,0,0,0H43.31C43.74,37.56,44.09,38.39,44.09,39.41Z"/><path class="cls-3" d="M16.54,40.19c0-4.49-4-11.35-4.23-12.46-.69-3.9,1.61-6.86,6.41-8.37,4.32-1.37,7.21,1.26,9,4.09a24.15,24.15,0,0,0-1.52,6.41,49,49,0,0,0-.29,6.83H23.17l-.2,0c-1.28-5-6.72-13.32-5.74-9.89,1.67,4.59.6,10.14-.36,13.39h-.34Z"/><path class="cls-3" d="M47.14,17.93a2.77,2.77,0,0,1,.58-.06h.4l.13,0h0l.07,0h.06l.14,0,.14,0,.1,0,.1,0,.1,0,.19.11h0l.09.06.09.07.08.06.08.07h0l.08.07.06.07.08.09,0,.06h0l.09.11h0l.1.15,0,.07,0,.06,0,.1a2.09,2.09,0,0,1,.08.2,2.18,2.18,0,0,1,.07.21l0,.11a2.61,2.61,0,0,1-2.1,3,2.77,2.77,0,0,1-.58.06h-.27l-.13,0h0l-.11,0-.19,0h0l-.18-.06-.12,0-.12-.05-.12-.06-.11-.06h0l-.11-.07-.1-.07-.09-.07-.2-.18a2.3,2.3,0,0,1-.28-.33l-.1-.15,0-.07-.07-.13,0-.06-.07-.17a2.18,2.18,0,0,1-.07-.21L45,21a2.47,2.47,0,0,1-.05-.5h0s0-.1,0-.15,0-.09,0-.13,0-.1,0-.16h0c0-.05,0-.1,0-.15h0V19.8l0-.06.06-.17,0-.1,0-.08,0-.09a2.51,2.51,0,0,1,.18-.29l.1-.13h0l.1-.12.08-.08.07-.07h0l.12-.11,0,0,.14-.11.11-.07h0l0,0,.14-.08.06,0,.11-.05.13-.05.07,0,.1,0,.1,0Z"/><path class="cls-3" d="M19,43.47a2.4,2.4,0,1,1-4.81,0,2.08,2.08,0,0,1,0-.24v0s0,0,0-.07h0s0-.07,0-.11l0-.11v-.05l0-.05,0-.12a1.91,1.91,0,0,1,.1-.24l0-.06,0-.06.05-.09,0-.07,0-.07.07-.09.08-.09h0l.09-.09.07-.07.13-.11.07-.06.11-.08h0l.09-.06a2.35,2.35,0,0,1,.74-.29l.1,0h.4A2.41,2.41,0,0,1,19,43.47Z"/></g></g></svg>