<svg xmlns="http://www.w3.org/2000/svg" viewBox="0 0 65 65"><defs><style>.cls-1{fill:#ed2224;}.cls-2{fill:#212121;opacity:0.4;isolation:isolate;}.cls-3{fill:#fafafa;}</style></defs><title>christmas</title><g id="Layer_2" data-name="Layer 2"><g id="Legacy"><g id="Snowflake"><g id="Christmas"><circle class="cls-1" cx="32.5" cy="32.5" r="32.5" transform="translate(-13.46 32.5) rotate(-45)"/><path class="cls-2" d="M65,31.92A32.5,32.5,0,0,1,33.08,65H31.91L16,49l1.38-2.64-2.52-2.52,1.81-1.8-3.86-3.86.35-.35L9.26,34l1-1,12.12-1.43-7.24-7.2,9.27-9.28,6.57,6.57,1.55-1.53-1.26-4.31L34.5,9.73l3.08,3.12.35-.36,3.84,3.76,1.8-1.8L47,17.92l2-2Z"/><path class="cls-3" d="M47.38,15.16l-2,2c-1.13,1.13-1.22,1.08-1.22-.59V15.08c0-.47-.09-.6-.6-.6H41.21c-.47,0-.6.07-.6.6v6.6a.54.54,0,0,1-.17.43L35.54,27c-.79.79-1,.7-1-.43V19.3a.58.58,0,0,1,.17-.43l4.41-4.41c.36-.36.36-.5,0-.85L37.46,12c-.42-.42-.54-.3-.85,0l-1,1c-.92.92-1,.81-1-.44V9.72c0-.51,0-.61-.61-.61H31.38c-.56,0-.61.1-.61.61v2.84c0,1.57-.11,1.61-1.29.44l-1-1c-.35-.35-.49-.37-.85,0L26,13.64c-.35.35-.38.47,0,.85l4.67,4.67a.58.58,0,0,1,.17.43v7.33c0,1.16-.29,1.17-1,.44L24.6,22.18a.58.58,0,0,1-.17-.43v-6.6c0-.47,0-.61-.61-.61H21.49c-.58,0-.56.12-.61.61l-.16,1.69c-.13,1.24-.23,1.23-1,.44l-2-2c-.43-.43-.51-.35-.85,0L16,16l-1,1c-.43.43-.3.54,0,.85l2,2c.94.94.86,1-.42,1H15.09c-.54,0-.61.17-.6.6V23.9c0,.51.06.61.61.61h6.23a.58.58,0,0,1,.42.18l5.19,5.19c.87.87.73,1-.43,1h-7a.57.57,0,0,1-.42-.18L14.46,26c-.32-.32-.46-.39-.85,0l-1.66,1.66c-.41.41-.3.49,0,.85L13,29.87c.79,1,.71,1-.43,1H9.71c-.6,0-.61.12-.6.6V34c0,.62.17.61.61.61h2.85c1.33,0,1.34.12.43,1l-1,1c-.38.38-.3.54,0,.85l1.65,1.65c.37.37.46.39.85,0l4.4-4.4a.58.58,0,0,1,.41-.2h7.35c1.13,0,1.35.1.43,1l-4.93,4.93a.56.56,0,0,1-.44.18h-6.6c-.46,0-.59,0-.6.6V43.6c0,.57.13.56.6.6l1.7.17c1.23.12,1.22.22.42,1l-2,2c-.43.43-.34.52,0,.85L17,50c.44.44.54.3.85,0l2-2c.94-.94,1-.87,1,.43v1.47c0,.54.17.61.61.61h2.34c.51,0,.6-.05.6-.6V43.67a.64.64,0,0,1,.18-.44l5.18-5.18c.78-.78,1-.79,1,.42v7a.61.61,0,0,1-.18.44l-4.67,4.67c-.32.32-.39.46,0,.85l1.66,1.66c.41.41.49.28.85,0L29.75,52c1-.78,1-.71,1,.42v2.87c0,.62.12.62.61.61h2.51c.61,0,.61-.17.61-.61V52.42c0-1.34.12-1.33,1-.43l1,1c.38.38.55.29.85,0L39,51.36c.36-.36.38-.47,0-.85L34.63,46.1a.58.58,0,0,1-.1-.4v-7c0-1.16.2-1.25,1-.43l4.94,4.94a.57.57,0,0,1,.14.42v6.23c0,.51.12.61.61.61h2.34c.58,0,.6-.16.6-.6V48.42c0-1.3.15-1.3,1-.43l2,2c.36.36.46.39.85,0l1-1,.8-.8c.4-.4.37-.49,0-.85l-2-2c-1.12-1.12-1-1.22.6-1.23h1.49c.49,0,.61-.08.61-.61V41.15c0-.49-.08-.61-.61-.61h-6.6a.58.58,0,0,1-.43-.17l-5-4.82c-.79-.79-.76-1,.43-1H45.7a.53.53,0,0,1,.43.17l4.41,4.41c.37.37.51.35.85,0L53,37.45c.42-.42.3-.54,0-.85l-1-1c-.92-.92-.8-1,.43-1h2.85c.5,0,.6-.05.6-.6v-2.6c0-.56-.09-.6-.61-.61H52.44c-1.58,0-1.62-.11-.46-1.28l1-1c.35-.35.37-.49,0-.85L51.34,26c-.35-.35-.48-.38-.85,0l-4.67,4.67a.59.59,0,0,1-.43.17H38.48c-1.08,0-1.28-.17-.43-1l5.2-5.2a.58.58,0,0,1,.42-.21h6.23c.51,0,.6-.11.6-.6V21.44c0-.59-.17-.61-.61-.61H48.42c-1.3,0-1.3-.14-.43-1l2-2c.36-.36.39-.46,0-.85l-1.79-1.77C47.84,14.77,47.73,14.81,47.38,15.16Z"/></g></g></g></g></svg>