<svg xmlns="http://www.w3.org/2000/svg" viewBox="0 0 65 65"><defs><style>.cls-1{fill:#ad4633;}.cls-2{fill:#212121;opacity:0.4;}.cls-3{fill:#fafafa;}</style></defs><title>food</title><g id="Layer_2" data-name="Layer 2"><g id="Sidebar_1.5" data-name="Sidebar 1.5"><g id="Foodie"><circle class="cls-1" cx="32.5" cy="32.5" r="32.5"/><path class="cls-2" d="M65,33.15a32.49,32.49,0,0,1-29.36,31.7l-11.7-11.7,2-13.4L20.7,34.51l7.14-23.16,4.76,4.77,1.87-4.72,1.47,1.46,1.41-1.41L38.86,13l1.69-1.68,1.34,1.34,1.29-1.28Z"/><path class="cls-3" d="M33.12,11.35h1.41V22.65h1.41V11.34h1.52V22.72h1.4V11.35h1.62V22.72h1.41V11.35h1.29L44.26,21s0,.36,0,.5A4.41,4.41,0,0,1,42,25.14c-4.63,4-1.47,8.08-1.47,9.05s0,17.59,0,17.59,0,0,0,0a2.17,2.17,0,0,1-2.4,1.83,2.17,2.17,0,0,1-2.39-1.83s0,0,0,0h0V34.23c0-1.12,2.67-5.82-1.79-9.31l0,0A4.37,4.37,0,0,1,32,21.79c0-.09,0-.3,0-.3Z"/><path class="cls-3" d="M27.83,11.35H26.7s-6,2.75-6,23.16c4.88,1,2.82,5.12,2.46,5.64,0,1,.1,11.71.1,11.71h0s0,0,0,0a2.09,2.09,0,0,0,2.31,1.77,2.09,2.09,0,0,0,2.3-1.78,0,0,0,0,0,0,0h0s0-12,0-13.21S27.83,11.35,27.83,11.35Z"/></g></g></g></svg>