<svg xmlns="http://www.w3.org/2000/svg" viewBox="0 0 65 65"><defs><style>.cls-1{fill:#b0a433;}.cls-2{fill:#212121;opacity:0.4;}.cls-3{fill:#fafafa;}</style></defs><title>latin</title><g id="Layer_2" data-name="Layer 2"><g id="Sidebar_1.5" data-name="Sidebar 1.5"><g id="Latin"><circle class="cls-1" cx="32.5" cy="32.5" r="32.5"/><path class="cls-2" d="M64,40.62A32.51,32.51,0,0,1,34.46,64.94L19.71,50.2l5-7.3,4-12.26L19,21l6.37-5.78,2.46,2.46,4.1-4.1L34.36,16,36,14.3l2.44.82Z"/><path class="cls-3" d="M32,14.08a2.77,2.77,0,0,1,.43,2.52,2.8,2.8,0,0,1-4.73.9,2.93,2.93,0,0,1-.63-2.13A3,3,0,0,1,29,13.12,2.8,2.8,0,0,1,32,14.08Z"/><path class="cls-3" d="M23.64,18.48c0,.2.18.16.3.19,3.73.28,7.41.79,11.15,1.05-1.68.91-3.43,1.71-5.15,2.58-.08.42.19.84.27,1.26.05,0,.08.09.14.06l7.55-1.9c1,1,2,2,2.86,3,.07.32-.35.58-.39.92l-.37.58c-2-.66-4-1.42-6-2.16-.65,2.22-1.07,4.52-1.6,6.78.64.67,1.57,1.32,2.25,1.93a15.07,15.07,0,0,1,4.08,7.37,33.64,33.64,0,0,1,.91,10.35c-.93,0-1.82,0-2.73-.08C37,44.93,35.77,39.28,31.44,36c-.28-.16-.59-.42-.9-.56a11.59,11.59,0,0,0-1.08,2.07c-1,2.3-2,4.64-3.1,6.93-2.17,2-4.44,3.75-6.64,5.71A8.28,8.28,0,0,1,18.45,49c-.09-.18-.32-.3-.4-.49,1.83-1.95,3.73-4,5.63-6Q25.23,35.79,26.82,29c-.49-2-1.09-3.89-1.68-5.81-.42-.46-1.11-.38-1.65-.63C22,22,20.51,21.52,19,21a7.55,7.55,0,0,1,1.84-3.81C21,17.21,21,17,21,17a11.4,11.4,0,0,1,4.16-2.68,18.34,18.34,0,0,1,.43,1.88C25,17,24.27,17.75,23.64,18.48Z"/><path class="cls-3" d="M38.46,15.12c1,1.07,1.14,2.67,1.79,4a14.62,14.62,0,0,1-2.18-.2,2.42,2.42,0,0,0,.36-2.45,2.58,2.58,0,0,0-2-1.37,2.71,2.71,0,0,0-1.92.75,2.46,2.46,0,0,0-.37,2.69,8,8,0,0,0-.92-.16,3.21,3.21,0,0,1,.53-2.91,3.36,3.36,0,0,1,2.85-1.14A3.54,3.54,0,0,1,38.46,15.12Z"/><path class="cls-3" d="M37.79,26.39c0,1.73-.32,3.44-.33,5.21,1.08,2.22,2.22,4.4,3.32,6.63,2,.72,4.09,1.42,6.18,1.94-.06.59-.18,1.17-.25,1.76-2.26-.29-4.52-.59-6.8-.85-1-4.14-2.8-8-6.49-10.52.46-1.78.83-3.57,1.31-5.33C35.73,25.68,36.84,25.88,37.79,26.39Z"/><path class="cls-3" d="M31.37,37A10.5,10.5,0,0,1,35,42.42l-1.21.38c0,3,0,6,.11,9-.36.13-.8.1-1.16.23-1-4.14-2.16-8.23-3.16-12.41.35-1,.84-1.89,1.25-2.82C31.11,36.68,31.1,37,31.37,37Z"/></g></g></g></svg>