<svg xmlns="http://www.w3.org/2000/svg" viewBox="0 0 65 65"><defs><style>.cls-1{fill:#fd0051;}.cls-2{fill:#212121;opacity:0.4;}.cls-3{fill:#fafafa;}</style></defs><title>live</title><g id="Layer_2" data-name="Layer 2"><g id="Sidebar_1.5" data-name="Sidebar 1.5"><g id="Live"><circle class="cls-1" cx="32.5" cy="32.5" r="32.5"/><path class="cls-2" d="M63.67,41.71A32.53,32.53,0,0,1,39.89,64.15L28.23,52.49l5.35-4.78L14.4,28.52l5-6.34L31.08,33.91l.43-.43L21.29,23.27l2.9-2.9,9.09,9.08,3-3-6.62-6.62,6.1-6.1Z"/><path class="cls-3" d="M14.4,28.52l-1.48-2.44,6.44-3.9,1.48,2.44Zm8.35-4.65a2.05,2.05,0,1,0-2.05-2.05A2.05,2.05,0,0,0,22.75,23.87Zm9.93-2.74a4.31,4.31,0,1,0-4.31-4.31A4.31,4.31,0,0,0,32.68,21.13Zm19.4,25.7a41.19,41.19,0,0,0-4.55-15.48C42,20.71,34.55,23,34.55,23c-3.3.46-5.63,3.46-5.63,3.46a34.38,34.38,0,0,0-4.46,8.1l-4.64-6.86-2.21,1.41s1.67,4.43,4,9c2.84,5.57,6.14.34,6.14.34l.47,14H44c0-.72-.17-14.83-.23-17,4,5,5.52,12,5.52,12Z"/></g></g></g></svg>