<svg xmlns="http://www.w3.org/2000/svg" viewBox="0 0 65 65"><defs><style>.cls-1{fill:#1f9784;}.cls-2{fill:#212121;opacity:0.4;}.cls-3{fill:#fafafa;}</style></defs><title>movie</title><g id="Layer_2" data-name="Layer 2"><g id="Sidebar_1.5" data-name="Sidebar 1.5"><g id="Cinema"><circle class="cls-1" cx="32.5" cy="32.5" r="32.5"/><path class="cls-2" d="M43.83,19.29,64.21,39.66A32.51,32.51,0,0,1,36.46,64.76l-19-19-3.23-9.28,2.37-12.49,11.08-7.59Z"/><path class="cls-3" d="M49.3,32.5A18.68,18.68,0,1,0,30.62,51.18,18.68,18.68,0,0,0,49.3,32.5ZM30.62,19.44a10.38,10.38,0,0,1,4.88,1.21L32.7,25a8.16,8.16,0,0,0-4.15,0l-2.8-4.37A10.38,10.38,0,0,1,30.62,19.44ZM17.88,28.69a10.38,10.38,0,0,1,2.66-4.27l3.28,4a8.06,8.06,0,0,0-1.3,4l-5,1.31A10.38,10.38,0,0,1,17.88,28.69Zm4.87,15a10.38,10.38,0,0,1-3.24-3.85L24.32,38a8.13,8.13,0,0,0,3.39,2.47l-.3,5.14A10.38,10.38,0,0,1,22.75,43.67Zm15.75,0a10.39,10.39,0,0,1-4.66,1.89l-.3-5.14A8.13,8.13,0,0,0,36.93,38l4.8,1.87A10.38,10.38,0,0,1,38.5,43.67Zm.22-11.28a8.07,8.07,0,0,0-1.3-4l3.28-4a10.44,10.44,0,0,1,3,9.28Z"/><path class="cls-3" d="M36.82,51a14.36,14.36,0,0,0,6.76-.62c3.74-1.38,4.95-4.43,9.47-3.9V43C46,43.64,44.11,50.41,36.82,51Z"/></g></g></g></svg>