<svg xmlns="http://www.w3.org/2000/svg" viewBox="0 0 65 65"><defs><style>.cls-1{fill:#459701;}.cls-2{fill:#212121;opacity:0.4;}.cls-3{fill:#fafafa;}</style></defs><title>other</title><g id="Layer_2" data-name="Layer 2"><g id="Sidebar_1.5" data-name="Sidebar 1.5"><g id="Various"><circle class="cls-1" cx="32.5" cy="32.5" r="32.5"/><path class="cls-2" d="M18.06,29.73,48.9,60.57a32.37,32.37,0,0,1-7.74,3.27l-28.6-28.6Z"/><path class="cls-2" d="M35.25,29.75,58.07,52.57a32.55,32.55,0,0,1-5.5,5.5L29.76,35.26Z"/><path class="cls-2" d="M52.43,29.74,63.84,41.15a32.06,32.06,0,0,1-3.27,7.74L46.93,35.25Z"/><path class="cls-3" d="M11.43,32.47a3.75,3.75,0,0,1,1.13-2.72,3.67,3.67,0,0,1,2.71-1.15,3.82,3.82,0,0,1,2.79,1.13,3.71,3.71,0,0,1,1.15,2.74,3.81,3.81,0,0,1-1.15,2.77,3.77,3.77,0,0,1-2.79,1.16,3.65,3.65,0,0,1-2.71-1.16A3.83,3.83,0,0,1,11.43,32.47Zm17.18,0a3.75,3.75,0,0,1,1.13-2.72,3.67,3.67,0,0,1,2.71-1.15,3.82,3.82,0,0,1,2.79,1.13,3.71,3.71,0,0,1,1.15,2.74,3.81,3.81,0,0,1-1.15,2.77,3.77,3.77,0,0,1-2.79,1.16,3.65,3.65,0,0,1-2.71-1.16A3.83,3.83,0,0,1,28.61,32.47Zm17.18,0a3.75,3.75,0,0,1,1.13-2.72,3.67,3.67,0,0,1,2.71-1.15,3.82,3.82,0,0,1,2.79,1.13,3.71,3.71,0,0,1,1.15,2.74,3.81,3.81,0,0,1-1.15,2.77,3.77,3.77,0,0,1-2.79,1.16,3.65,3.65,0,0,1-2.71-1.16A3.83,3.83,0,0,1,45.8,32.47Z"/></g></g></g></svg>