<svg xmlns="http://www.w3.org/2000/svg" xmlns:xlink="http://www.w3.org/1999/xlink" viewBox="0 0 65 65"><defs><style>.cls-1{fill:#fafafa;}.cls-2{fill:#b43bca;}.cls-3{fill:#212121;opacity:0.4;}.cls-4{clip-path:url(#clip-path);}</style><clipPath id="clip-path"><circle class="cls-1" cx="25.16" cy="24.34" r="1.22"/></clipPath></defs><title>party</title><g id="Layer_2" data-name="Layer 2"><g id="Sidebar_1.5" data-name="Sidebar 1.5"><g id="Party"><circle class="cls-2" cx="32.5" cy="32.5" r="32.5"/><path class="cls-3" d="M20.33,41.1,42.62,63.39A32.72,32.72,0,0,1,32.5,65q-1.23,0-2.44-.09L16.18,51l3.12-3.12Z"/><path class="cls-3" d="M25.81,35.62,50,59.86a32.89,32.89,0,0,1-5.41,2.8L27.06,45.09l-2.72-6.84Z"/><path class="cls-3" d="M64.48,38.28a32.48,32.48,0,0,1-13.63,21L33.2,41.67l1-1.92-9.84-10,8.74,4.36L24,24.95l1.91-1.6L30.55,28l.36-1.08-.32-2.43,1.59,1.31,1.33-3.27-.18-1.84L32.2,19.27l-1.14-.43L28.7,17.69l-.31-2.33,1.47-1.08,5.93,5.93,3.53-2.45L41,19.51l3.87-.78Z"/><circle class="cls-1" cx="25.16" cy="24.34" r="1.22"/><g class="cls-4"><rect class="cls-1" x="23.94" y="24.31" width="2.45" height="0.03"/><rect class="cls-1" x="23.94" y="24.34" width="2.45" height="0.03"/><rect class="cls-1" x="23.94" y="24.37" width="2.45" height="0.03"/><rect class="cls-1" x="23.94" y="24.4" width="2.45" height="0.03"/><rect class="cls-1" x="23.94" y="24.43" width="2.45" height="0.03"/><rect class="cls-1" x="23.94" y="24.46" width="2.45" height="0.03"/><rect class="cls-1" x="23.94" y="24.48" width="2.45" height="0.03"/><rect class="cls-1" x="23.94" y="24.51" width="2.45" height="0.03"/><rect class="cls-1" x="23.94" y="24.57" width="2.45" height="0.03"/><rect class="cls-1" x="23.94" y="24.6" width="2.45" height="0.03"/><rect class="cls-1" x="23.94" y="24.63" width="2.45" height="0.03"/><rect class="cls-1" x="23.94" y="24.66" width="2.45" height="0.03"/><rect class="cls-1" x="23.94" y="24.68" width="2.45" height="0.03"/><rect class="cls-1" x="23.94" y="24.71" width="2.45" height="0.03"/><rect class="cls-1" x="23.94" y="24.74" width="2.45" height="0.03"/><rect class="cls-1" x="23.94" y="24.77" width="2.45" height="0.03"/><rect class="cls-1" x="23.94" y="24.8" width="2.45" height="0.03"/><rect class="cls-1" x="23.94" y="24.83" width="2.45" height="0.03"/><rect class="cls-1" x="23.94" y="24.85" width="2.45" height="0.03"/><rect class="cls-1" x="23.94" y="24.88" width="2.45" height="0.03"/><rect class="cls-1" x="23.94" y="24.91" width="2.45" height="0.03"/><rect class="cls-1" x="23.94" y="24.94" width="2.45" height="0.03"/><rect class="cls-1" x="23.94" y="24.97" width="2.45" height="0.03"/><rect class="cls-1" x="23.94" y="25" width="2.45" height="0.03"/><rect class="cls-1" x="23.94" y="25.02" width="2.45" height="0.03"/><rect class="cls-1" x="23.94" y="25.05" width="2.45" height="0.03"/><rect class="cls-1" x="23.94" y="25.08" width="2.45" height="0.03"/><rect class="cls-1" x="23.94" y="25.11" width="2.45" height="0.03"/><rect class="cls-1" x="23.94" y="25.14" width="2.45" height="0.03"/><rect class="cls-1" x="23.94" y="25.17" width="2.45" height="0.03"/><rect class="cls-1" x="23.94" y="25.19" width="2.45" height="0.03"/><rect class="cls-1" x="23.94" y="25.22" width="2.45" height="0.03"/><rect class="cls-1" x="23.94" y="25.25" width="2.45" height="0.03"/><rect class="cls-1" x="23.94" y="25.28" width="2.45" height="0.03"/><rect class="cls-1" x="23.94" y="25.31" width="2.45" height="0.03"/><rect class="cls-1" x="23.94" y="25.34" width="2.45" height="0.03"/><rect class="cls-1" x="23.94" y="25.37" width="2.45" height="0.03"/><rect class="cls-1" x="23.94" y="25.39" width="2.45" height="0.03"/><rect class="cls-1" x="23.94" y="25.42" width="2.45" height="0.03"/><rect class="cls-1" x="23.94" y="25.45" width="2.45" height="0.03"/><rect class="cls-1" x="23.94" y="25.48" width="2.45" height="0.03"/><rect class="cls-1" x="23.94" y="25.51" width="2.45" height="0.03"/><polygon class="cls-1" points="26.39 25.56 25.16 25.56 23.94 25.56 23.94 25.54 26.39 25.54 26.39 25.56"/><polygon class="cls-1" points="25.16 25.56 26.39 25.56 26.39 25.56 25.16 25.56"/></g><g id="_Group_" data-name="&lt;Group&gt;"><path class="cls-1" d="M20.33,41.1a19.83,19.83,0,0,1,3.61,5.73L21.66,48.1l-.79.44-2,1.09a1.52,1.52,0,0,1,0,.93,1.54,1.54,0,1,1-1.28-2l1.16-3.24.08-.23.84-2.36Z"/><path class="cls-1" d="M32.52,19.65a2.15,2.15,0,0,1,1.33,1.59,5.77,5.77,0,0,1-2,5.2l-.21.15A5,5,0,0,1,31,29.43l-1.1-.62a4.51,4.51,0,0,0,.94-1.45,1.88,1.88,0,0,0,.08-.48,1.47,1.47,0,0,1-1.67-1.28,1,1,0,0,1,1.34-1.15c.31.07.64.48.86,1.1a6.53,6.53,0,0,0,1.71-3.66A3.08,3.08,0,0,0,32.52,19.65Z"/><path class="cls-1" d="M37,39.54,34.34,41l-1.14.64a20.24,20.24,0,0,0-8.79-12l.17-.48C34.78,32.56,37,39.54,37,39.54Z"/><path class="cls-1" d="M41.16,30.15a2.44,2.44,0,0,1,.39,1.33,2.54,2.54,0,0,1-1,1.93,2.26,2.26,0,0,1-2,.37c-.5-.19-.55-.51-1.3-.8a2.22,2.22,0,0,0-1-.2,2,2,0,0,0-1.2.49l-.24-.9A2,2,0,0,1,36.37,32c.3.07.37.2,1,.59s1.16.7,1.54.68a1.88,1.88,0,0,0,1.31-.9,2.23,2.23,0,0,0,.06-2.3,2.16,2.16,0,0,0-.76-.77Z"/><path class="cls-1" d="M42.35,23.16a2.77,2.77,0,0,1-1,2.1,3,3,0,0,1-2.32.18c-.25-.08-.82-.29-1.34-.52s-.6-.28-.83-.27a1.32,1.32,0,0,0-1.18.94c-.09.38.12.66.28,1a3.92,3.92,0,0,1-.09,3.21,3.37,3.37,0,0,1-2.19,1.48l-.35-.84a3.56,3.56,0,0,0,1.56-.93,2.79,2.79,0,0,0,.71-1.12,3.35,3.35,0,0,0-.08-1.88c-.28-1.19-.7-1.58-.45-2.14a1.16,1.16,0,0,1,.54-.56,1.56,1.56,0,0,1,1.23.1,3,3,0,0,1,.52.29,4.15,4.15,0,0,0,1.91.88,1.89,1.89,0,0,0,1.17-.34,2,2,0,0,0,.69-1.06,3.47,3.47,0,0,0,0-2c-.19-.67-.46-.86-.4-1.41a1.65,1.65,0,0,1,.31-.81,1.6,1.6,0,0,1,.74-.53,2.17,2.17,0,0,1,1-.09c.58.05.76.23,1,.11s.27-.24.29-.72l.85.45a1.39,1.39,0,0,1-.52,1.11,1.49,1.49,0,0,1-1.08,0c-.81-.17-1.13-.55-1.56-.38a.76.76,0,0,0-.33.26C40.94,20.43,42.38,21.52,42.35,23.16Z"/><path class="cls-1" d="M45.54,35.93l-.67.66a.24.24,0,0,0-.07.21l.16.93a.23.23,0,0,1-.34.25l-.84-.44a.23.23,0,0,0-.22,0l-.84.44a.23.23,0,0,1-.34-.25l.16-.93a.24.24,0,0,0-.07-.21l-.67-.66a.24.24,0,0,1,.13-.4l.93-.13a.24.24,0,0,0,.18-.13l.42-.85a.23.23,0,0,1,.42,0l.42.85a.24.24,0,0,0,.18.13l.93.13A.23.23,0,0,1,45.54,35.93Z"/><path class="cls-1" d="M34.49,18.38a.31.31,0,0,1,.17-.53l1.23-.18a.32.32,0,0,0,.23-.17l.55-1.11a.31.31,0,0,1,.55,0l.55,1.11a.31.31,0,0,0,.23.17l1.23.18a.31.31,0,0,1,.17.53l-.89.87a.31.31,0,0,0-.09.27l.21,1.23a.31.31,0,0,1-.45.33l-1.1-.58a.31.31,0,0,0-.29,0l-1.1.58a.31.31,0,0,1-.45-.33l.21-1.23a.31.31,0,0,0-.09-.27Z"/><path class="cls-1" d="M30.32,43.27l-1,.57-2.23,1.24a20,20,0,0,0-5.32-7.95l0-.08,1-2.68.41-1.15A20.2,20.2,0,0,1,30.32,43.27Z"/><path class="cls-1" d="M27.63,16c0-1.49,2.12-1.73,2.23-1.74-.07.05-1.3,1-1.06,2a3.09,3.09,0,0,0,2.14,2.1,3.69,3.69,0,0,1,1.59,1.22,16.71,16.71,0,0,0-2.57-1C28.63,18.21,27.6,17.56,27.63,16Z"/><rect class="cls-1" x="43.89" y="25.98" width="4.99" height="2.84" transform="translate(-4.12 8.64) rotate(-10.19)"/></g></g></g></g></svg>