<svg xmlns="http://www.w3.org/2000/svg" viewBox="0 0 65 65"><defs><style>.cls-1{fill:#1f6697;}.cls-2{fill:#212121;opacity:0.4;}.cls-3{fill:#fafafa;}</style></defs><title>standup</title><g id="Layer_2" data-name="Layer 2"><g id="Sidebar_1.5" data-name="Sidebar 1.5"><g id="Karaoke"><circle class="cls-1" cx="32.5" cy="32.5" r="32.5" transform="translate(-13.46 32.5) rotate(-45)"/><path class="cls-2" d="M38.66,64.41A31.42,31.42,0,0,1,31,65L17.05,51l2.86-5.36Z"/><path class="cls-2" d="M64.47,38.31a32.45,32.45,0,0,1-25.15,26L18.91,43.85l9.76-5.33-5.18-5.17v-7.4l6.65,6.65,2.45-5,6.88,6.87,6.38,6.38.38-.35L40,34.32l-4.71-7.23-5.72-5.72V14L41.35,25.75l5.29-5.28Z"/><path class="cls-3" d="M29.57,14a3.7,3.7,0,0,0,3.7,3.7,3.7,3.7,0,0,0-3.7,3.7,3.7,3.7,0,0,0-3.7-3.7A3.7,3.7,0,0,0,29.57,14Z"/><path class="cls-3" d="M49.27,41.17a3.7,3.7,0,0,0-3.7,3.7,3.7,3.7,0,0,0-3.7-3.7,3.7,3.7,0,0,0,3.7-3.7A3.7,3.7,0,0,0,49.27,41.17Z"/><path class="cls-3" d="M27.2,29.65a3.7,3.7,0,0,0-3.7,3.7,3.7,3.7,0,0,0-3.7-3.7,3.7,3.7,0,0,0,3.7-3.7A3.7,3.7,0,0,0,27.2,29.65Z"/><polygon class="cls-3" points="16.16 50.14 17.05 51.03 21.57 47.23 19.96 45.62 16.16 50.14"/><path class="cls-3" d="M18.91,43.85l4.35,4.35L39.47,34.51,32.6,27.64ZM33,32.14a.76.76,0,0,1,1.08,0l.9.9a.76.76,0,0,1,0,1.08l-3.24,3.24a.76.76,0,0,1-1.08,0l-.9-.9a.76.76,0,0,1,0-1.08Z"/><path class="cls-3" d="M47.7,30l-.11-.11A7.52,7.52,0,0,0,37.18,19.51l-.11-.11a.76.76,0,0,0-1.08,0l-.47.47a.76.76,0,0,0,0,1.08l0,0a7.46,7.46,0,0,0-1.43,2.66L43.47,33a7.48,7.48,0,0,0,2.66-1.43l0,0a.76.76,0,0,0,1.08,0l.47-.47A.76.76,0,0,0,47.7,30Z"/><polygon class="cls-3" points="32.79 27.11 40 34.32 43.01 33.26 33.85 24.1 32.79 27.11"/></g></g></g></svg>