<svg xmlns="http://www.w3.org/2000/svg" viewBox="0 0 65 65"><defs><style>.cls-1{fill:#017d53;}.cls-2{fill:#212121;opacity:0.4;}.cls-3{fill:#fafafa;}</style></defs><title>student</title><g id="Layer_2" data-name="Layer 2"><g id="Sidebar_1.5" data-name="Sidebar 1.5"><g id="Student"><circle class="cls-1" cx="32.5" cy="32.5" r="32.5"/><path class="cls-2" d="M65,33.55A32.5,32.5,0,0,1,38.26,64.49h0L20.08,46.31,19,42,17,40l1.56-2,7.84-.47L12.28,23.45,52.73,21.3Z"/><path class="cls-3" d="M52.73,22l-9.16,3.21,0,6.78h.05c0,2.08-5.45,3.64-10.91,3.67s-10.91-1.64-11-3.49h0l0-6.56-9.45-2.13v-.67L31,17.42h0L52.72,21.3h0Z"/><path class="cls-3" d="M35.42,37.94a10.32,10.32,0,0,1-2.92.73,10.32,10.32,0,0,1-2.92-.73c-2.47-.82-8.71-1.34-12.66-.08L17,40a.82.82,0,0,1,1,.63c.24.79.79,4,1.79,5.32,1.25,1.58,3.94,1.64,5.76,1.56,2.45-.11,4.05-1.19,4.74-3a22,22,0,0,1,1.51-3.92,1,1,0,0,1,1.42,0,22.05,22.05,0,0,1,1.51,3.92c.68,1.84,2.29,2.93,4.74,3,1.82.08,4.51,0,5.76-1.56,1-1.27,1.56-4.53,1.79-5.32A.82.82,0,0,1,48,40l.12-2.18C44.13,36.6,37.9,37.12,35.42,37.94Zm-6.24,6.58a4.08,4.08,0,0,1-3.42,2.08,8.3,8.3,0,0,1-4.64-.71c-.88-.52-1.31-2.18-1.52-3.18S19,39.54,20,38.83s3.61-.76,5.32-.66c1.29.08,4.08.42,4.61,1.42S29.72,43.52,29.18,44.52ZM45.4,42.7c-.21,1-.64,2.66-1.52,3.18a8.3,8.3,0,0,1-4.64.71,4.08,4.08,0,0,1-3.42-2.08c-.53-1-1.32-3.92-.79-4.92s3.32-1.34,4.61-1.42c1.71-.1,4.29-.05,5.32.66S45.61,41.7,45.4,42.7Z"/></g></g></g></svg>