<svg xmlns="http://www.w3.org/2000/svg" viewBox="0 0 65 65"><defs><style>.cls-1{fill:#b0335b;}.cls-2{fill:#212121;opacity:0.4;}.cls-3{fill:#fafafa;}</style></defs><title>culture</title><g id="Layer_2" data-name="Layer 2"><g id="Sidebar_1.5" data-name="Sidebar 1.5"><g id="Theatre"><circle class="cls-1" cx="32.5" cy="32.5" r="32.5"/><path class="cls-2" d="M64.56,37.89A32.52,32.52,0,0,1,43.27,63.17L24.45,44.36l-6-7.88L13.84,23.75,37,17.95l12.3,12.3,3.8-3.8Z"/><path class="cls-3" d="M40.92,23.23c-.76-.27-1.51-.56-2.22-.84-.27,5.79-.48,9.09-2.16,12.22a15.78,15.78,0,0,1-1.48,2.25,7.84,7.84,0,0,1,.87.26c2.77,1,4.47,3.33,3.79,5.21l-7.27-2.62c-.79.77-1.69,1.61-2.73,2.55.75,1.4,1.63,3,2.64,4.8h0c15.93-6.22,14.57-5.88,20.76-20.6A73.1,73.1,0,0,1,40.92,23.23Zm-.26,8.33s1.79-2,3.35-2.17,3.42.71,3.17,2C46.44,35.28,40.66,31.56,40.66,31.56Z"/><path class="cls-3" d="M37,17.95A73.09,73.09,0,0,1,24.45,19,73.36,73.36,0,0,1,11.89,18c.83,15.95-.32,15.17,12.56,26.42h0C37.33,33.11,36.18,33.9,37,17.95Zm-7.57,5.84c1.4-.73,3.46-.49,3.67.85C33.72,28.51,27,27,27,27S28,24.52,29.44,23.79Zm-13.65.85c.21-1.34,2.27-1.58,3.67-.85S21.88,27,21.88,27,15.18,28.51,15.79,24.64Zm8.66,12.79c-2.95,0-5.33-1.62-5.33-3.62H29.78C29.78,35.8,27.39,37.42,24.45,37.42Z"/></g></g></g></svg>