<svg xmlns="http://www.w3.org/2000/svg" viewBox="0 0 65 65"><defs><style>.cls-1{fill:#0597fd;}.cls-2{fill:#212121;opacity:0.4;}.cls-3{fill:#fafafa;}</style></defs><title>traditional</title><g id="Layer_2" data-name="Layer 2"><g id="Sidebar_1.5" data-name="Sidebar 1.5"><g id="Greek"><circle class="cls-1" cx="32.5" cy="32.5" r="32.5"/><path class="cls-2" d="M64.55,37.86A32.51,32.51,0,0,1,37.71,64.58L23.18,50.06l2.65-10L34.71,8Z"/><path class="cls-3" d="M34.78,23.93l-.34-9.81a1.86,1.86,0,0,0,1.4-1.8h0a1.88,1.88,0,0,0-1.13-1.71V8H30.29V10.6a1.88,1.88,0,0,0-1.13,1.71h0a1.87,1.87,0,0,0,1.4,1.8l-.34,9.81c-3.81,4.73-10.94,14.64-9.5,21.13,1.56,7,8.19,8.88,10.76,9.33v1.56a1,1,0,0,0,2.05,0V54.39c2.57-.45,9.2-2.29,10.76-9.33C45.72,38.57,38.6,28.66,34.78,23.93ZM31,47.67a4.49,4.49,0,0,1-3.83-4.22A4.48,4.48,0,0,1,31,39.24Zm3.05,0V39.24a4.48,4.48,0,0,1,3.83,4.22A4.49,4.49,0,0,1,34,47.67Z"/></g></g></g></svg>